<?xml version="1.0" encoding="utf-8" standalone="no"?>
<!DOCTYPE svg PUBLIC "-//W3C//DTD SVG 1.1//EN"
  "http://www.w3.org/Graphics/SVG/1.1/DTD/svg11.dtd">
<svg xmlns:xlink="http://www.w3.org/1999/xlink" width="720pt" height="432pt" viewBox="0 0 720 432" xmlns="http://www.w3.org/2000/svg" version="1.1">
 <metadata>
  <rdf:RDF xmlns:dc="http://purl.org/dc/elements/1.1/" xmlns:cc="http://creativecommons.org/ns#" xmlns:rdf="http://www.w3.org/1999/02/22-rdf-syntax-ns#">
   <cc:Work>
    <dc:type rdf:resource="http://purl.org/dc/dcmitype/StillImage"/>
    <dc:date>2026-03-20T21:04:16.495897</dc:date>
    <dc:format>image/svg+xml</dc:format>
    <dc:creator>
     <cc:Agent>
      <dc:title>Matplotlib v3.10.8, https://matplotlib.org/</dc:title>
     </cc:Agent>
    </dc:creator>
   </cc:Work>
  </rdf:RDF>
 </metadata>
 <defs>
  <style type="text/css">*{stroke-linejoin: round; stroke-linecap: butt}</style>
 </defs>
 <g id="figure_1">
  <g id="patch_1">
   <path d="M 0 432 
L 720 432 
L 720 0 
L 0 0 
z
" style="fill: #ffffff"/>
  </g>
  <g id="axes_1">
   <g id="patch_2">
    <path d="M 46.64 390.04 
L 709.2 390.04 
L 709.2 10.8 
L 46.64 10.8 
z
" style="fill: #ffffff"/>
   </g>
   <g id="matplotlib.axis_1">
    <g id="xtick_1">
     <g id="line2d_1">
      <defs>
       <path id="m9aff4facc5" d="M 0 0 
L 0 3.5 
" style="stroke: #000000; stroke-width: 0.8"/>
      </defs>
      <g>
       <use xlink:href="#m9aff4facc5" x="76.756364" y="390.04" style="stroke: #000000; stroke-width: 0.8"/>
      </g>
     </g>
     <g id="text_1">
      <!-- 0 -->
      <g transform="translate(73.575114 404.638438) scale(0.1 -0.1)">
       <defs>
        <path id="DejaVuSans-30" d="M 2034 4250 
Q 1547 4250 1301 3770 
Q 1056 3291 1056 2328 
Q 1056 1369 1301 889 
Q 1547 409 2034 409 
Q 2525 409 2770 889 
Q 3016 1369 3016 2328 
Q 3016 3291 2770 3770 
Q 2525 4250 2034 4250 
z
M 2034 4750 
Q 2819 4750 3233 4129 
Q 3647 3509 3647 2328 
Q 3647 1150 3233 529 
Q 2819 -91 2034 -91 
Q 1250 -91 836 529 
Q 422 1150 422 2328 
Q 422 3509 836 4129 
Q 1250 4750 2034 4750 
z
" transform="scale(0.015625)"/>
       </defs>
       <use xlink:href="#DejaVuSans-30"/>
      </g>
     </g>
    </g>
    <g id="xtick_2">
     <g id="line2d_2">
      <g>
       <use xlink:href="#m9aff4facc5" x="172.619726" y="390.04" style="stroke: #000000; stroke-width: 0.8"/>
      </g>
     </g>
     <g id="text_2">
      <!-- 2 -->
      <g transform="translate(169.438476 404.638438) scale(0.1 -0.1)">
       <defs>
        <path id="DejaVuSans-32" d="M 1228 531 
L 3431 531 
L 3431 0 
L 469 0 
L 469 531 
Q 828 903 1448 1529 
Q 2069 2156 2228 2338 
Q 2531 2678 2651 2914 
Q 2772 3150 2772 3378 
Q 2772 3750 2511 3984 
Q 2250 4219 1831 4219 
Q 1534 4219 1204 4116 
Q 875 4013 500 3803 
L 500 4441 
Q 881 4594 1212 4672 
Q 1544 4750 1819 4750 
Q 2544 4750 2975 4387 
Q 3406 4025 3406 3419 
Q 3406 3131 3298 2873 
Q 3191 2616 2906 2266 
Q 2828 2175 2409 1742 
Q 1991 1309 1228 531 
z
" transform="scale(0.015625)"/>
       </defs>
       <use xlink:href="#DejaVuSans-32"/>
      </g>
     </g>
    </g>
    <g id="xtick_3">
     <g id="line2d_3">
      <g>
       <use xlink:href="#m9aff4facc5" x="268.483089" y="390.04" style="stroke: #000000; stroke-width: 0.8"/>
      </g>
     </g>
     <g id="text_3">
      <!-- 4 -->
      <g transform="translate(265.301839 404.638438) scale(0.1 -0.1)">
       <defs>
        <path id="DejaVuSans-34" d="M 2419 4116 
L 825 1625 
L 2419 1625 
L 2419 4116 
z
M 2253 4666 
L 3047 4666 
L 3047 1625 
L 3713 1625 
L 3713 1100 
L 3047 1100 
L 3047 0 
L 2419 0 
L 2419 1100 
L 313 1100 
L 313 1709 
L 2253 4666 
z
" transform="scale(0.015625)"/>
       </defs>
       <use xlink:href="#DejaVuSans-34"/>
      </g>
     </g>
    </g>
    <g id="xtick_4">
     <g id="line2d_4">
      <g>
       <use xlink:href="#m9aff4facc5" x="364.346452" y="390.04" style="stroke: #000000; stroke-width: 0.8"/>
      </g>
     </g>
     <g id="text_4">
      <!-- 6 -->
      <g transform="translate(361.165202 404.638438) scale(0.1 -0.1)">
       <defs>
        <path id="DejaVuSans-36" d="M 2113 2584 
Q 1688 2584 1439 2293 
Q 1191 2003 1191 1497 
Q 1191 994 1439 701 
Q 1688 409 2113 409 
Q 2538 409 2786 701 
Q 3034 994 3034 1497 
Q 3034 2003 2786 2293 
Q 2538 2584 2113 2584 
z
M 3366 4563 
L 3366 3988 
Q 3128 4100 2886 4159 
Q 2644 4219 2406 4219 
Q 1781 4219 1451 3797 
Q 1122 3375 1075 2522 
Q 1259 2794 1537 2939 
Q 1816 3084 2150 3084 
Q 2853 3084 3261 2657 
Q 3669 2231 3669 1497 
Q 3669 778 3244 343 
Q 2819 -91 2113 -91 
Q 1303 -91 875 529 
Q 447 1150 447 2328 
Q 447 3434 972 4092 
Q 1497 4750 2381 4750 
Q 2619 4750 2861 4703 
Q 3103 4656 3366 4563 
z
" transform="scale(0.015625)"/>
       </defs>
       <use xlink:href="#DejaVuSans-36"/>
      </g>
     </g>
    </g>
    <g id="xtick_5">
     <g id="line2d_5">
      <g>
       <use xlink:href="#m9aff4facc5" x="460.209815" y="390.04" style="stroke: #000000; stroke-width: 0.8"/>
      </g>
     </g>
     <g id="text_5">
      <!-- 8 -->
      <g transform="translate(457.028565 404.638438) scale(0.1 -0.1)">
       <defs>
        <path id="DejaVuSans-38" d="M 2034 2216 
Q 1584 2216 1326 1975 
Q 1069 1734 1069 1313 
Q 1069 891 1326 650 
Q 1584 409 2034 409 
Q 2484 409 2743 651 
Q 3003 894 3003 1313 
Q 3003 1734 2745 1975 
Q 2488 2216 2034 2216 
z
M 1403 2484 
Q 997 2584 770 2862 
Q 544 3141 544 3541 
Q 544 4100 942 4425 
Q 1341 4750 2034 4750 
Q 2731 4750 3128 4425 
Q 3525 4100 3525 3541 
Q 3525 3141 3298 2862 
Q 3072 2584 2669 2484 
Q 3125 2378 3379 2068 
Q 3634 1759 3634 1313 
Q 3634 634 3220 271 
Q 2806 -91 2034 -91 
Q 1263 -91 848 271 
Q 434 634 434 1313 
Q 434 1759 690 2068 
Q 947 2378 1403 2484 
z
M 1172 3481 
Q 1172 3119 1398 2916 
Q 1625 2713 2034 2713 
Q 2441 2713 2670 2916 
Q 2900 3119 2900 3481 
Q 2900 3844 2670 4047 
Q 2441 4250 2034 4250 
Q 1625 4250 1398 4047 
Q 1172 3844 1172 3481 
z
" transform="scale(0.015625)"/>
       </defs>
       <use xlink:href="#DejaVuSans-38"/>
      </g>
     </g>
    </g>
    <g id="xtick_6">
     <g id="line2d_6">
      <g>
       <use xlink:href="#m9aff4facc5" x="556.073178" y="390.04" style="stroke: #000000; stroke-width: 0.8"/>
      </g>
     </g>
     <g id="text_6">
      <!-- 10 -->
      <g transform="translate(549.710678 404.638438) scale(0.1 -0.1)">
       <defs>
        <path id="DejaVuSans-31" d="M 794 531 
L 1825 531 
L 1825 4091 
L 703 3866 
L 703 4441 
L 1819 4666 
L 2450 4666 
L 2450 531 
L 3481 531 
L 3481 0 
L 794 0 
L 794 531 
z
" transform="scale(0.015625)"/>
       </defs>
       <use xlink:href="#DejaVuSans-31"/>
       <use xlink:href="#DejaVuSans-30" transform="translate(63.623047 0)"/>
      </g>
     </g>
    </g>
    <g id="xtick_7">
     <g id="line2d_7">
      <g>
       <use xlink:href="#m9aff4facc5" x="651.936541" y="390.04" style="stroke: #000000; stroke-width: 0.8"/>
      </g>
     </g>
     <g id="text_7">
      <!-- 12 -->
      <g transform="translate(645.574041 404.638438) scale(0.1 -0.1)">
       <use xlink:href="#DejaVuSans-31"/>
       <use xlink:href="#DejaVuSans-32" transform="translate(63.623047 0)"/>
      </g>
     </g>
    </g>
    <g id="text_8">
     <!-- Time -->
     <g transform="translate(365.686406 418.316562) scale(0.1 -0.1)">
      <defs>
       <path id="DejaVuSans-54" d="M -19 4666 
L 3928 4666 
L 3928 4134 
L 2272 4134 
L 2272 0 
L 1638 0 
L 1638 4134 
L -19 4134 
L -19 4666 
z
" transform="scale(0.015625)"/>
       <path id="DejaVuSans-69" d="M 603 3500 
L 1178 3500 
L 1178 0 
L 603 0 
L 603 3500 
z
M 603 4863 
L 1178 4863 
L 1178 4134 
L 603 4134 
L 603 4863 
z
" transform="scale(0.015625)"/>
       <path id="DejaVuSans-6d" d="M 3328 2828 
Q 3544 3216 3844 3400 
Q 4144 3584 4550 3584 
Q 5097 3584 5394 3201 
Q 5691 2819 5691 2113 
L 5691 0 
L 5113 0 
L 5113 2094 
Q 5113 2597 4934 2840 
Q 4756 3084 4391 3084 
Q 3944 3084 3684 2787 
Q 3425 2491 3425 1978 
L 3425 0 
L 2847 0 
L 2847 2094 
Q 2847 2600 2669 2842 
Q 2491 3084 2119 3084 
Q 1678 3084 1418 2786 
Q 1159 2488 1159 1978 
L 1159 0 
L 581 0 
L 581 3500 
L 1159 3500 
L 1159 2956 
Q 1356 3278 1631 3431 
Q 1906 3584 2284 3584 
Q 2666 3584 2933 3390 
Q 3200 3197 3328 2828 
z
" transform="scale(0.015625)"/>
       <path id="DejaVuSans-65" d="M 3597 1894 
L 3597 1613 
L 953 1613 
Q 991 1019 1311 708 
Q 1631 397 2203 397 
Q 2534 397 2845 478 
Q 3156 559 3463 722 
L 3463 178 
Q 3153 47 2828 -22 
Q 2503 -91 2169 -91 
Q 1331 -91 842 396 
Q 353 884 353 1716 
Q 353 2575 817 3079 
Q 1281 3584 2069 3584 
Q 2775 3584 3186 3129 
Q 3597 2675 3597 1894 
z
M 3022 2063 
Q 3016 2534 2758 2815 
Q 2500 3097 2075 3097 
Q 1594 3097 1305 2825 
Q 1016 2553 972 2059 
L 3022 2063 
z
" transform="scale(0.015625)"/>
      </defs>
      <use xlink:href="#DejaVuSans-54"/>
      <use xlink:href="#DejaVuSans-69" transform="translate(57.958984 0)"/>
      <use xlink:href="#DejaVuSans-6d" transform="translate(85.742188 0)"/>
      <use xlink:href="#DejaVuSans-65" transform="translate(183.154297 0)"/>
     </g>
    </g>
   </g>
   <g id="matplotlib.axis_2">
    <g id="ytick_1">
     <g id="line2d_8">
      <defs>
       <path id="mc8d4f123ea" d="M 0 0 
L -3.5 0 
" style="stroke: #000000; stroke-width: 0.8"/>
      </defs>
      <g>
       <use xlink:href="#mc8d4f123ea" x="46.64" y="340.614931" style="stroke: #000000; stroke-width: 0.8"/>
      </g>
     </g>
     <g id="text_9">
      <!-- −4 -->
      <g transform="translate(24.897813 344.414149) scale(0.1 -0.1)">
       <defs>
        <path id="DejaVuSans-2212" d="M 678 2272 
L 4684 2272 
L 4684 1741 
L 678 1741 
L 678 2272 
z
" transform="scale(0.015625)"/>
       </defs>
       <use xlink:href="#DejaVuSans-2212"/>
       <use xlink:href="#DejaVuSans-34" transform="translate(83.789062 0)"/>
      </g>
     </g>
    </g>
    <g id="ytick_2">
     <g id="line2d_9">
      <g>
       <use xlink:href="#mc8d4f123ea" x="46.64" y="278.099581" style="stroke: #000000; stroke-width: 0.8"/>
      </g>
     </g>
     <g id="text_10">
      <!-- −2 -->
      <g transform="translate(24.897813 281.8988) scale(0.1 -0.1)">
       <use xlink:href="#DejaVuSans-2212"/>
       <use xlink:href="#DejaVuSans-32" transform="translate(83.789062 0)"/>
      </g>
     </g>
    </g>
    <g id="ytick_3">
     <g id="line2d_10">
      <g>
       <use xlink:href="#mc8d4f123ea" x="46.64" y="215.584231" style="stroke: #000000; stroke-width: 0.8"/>
      </g>
     </g>
     <g id="text_11">
      <!-- 0 -->
      <g transform="translate(33.2775 219.38345) scale(0.1 -0.1)">
       <use xlink:href="#DejaVuSans-30"/>
      </g>
     </g>
    </g>
    <g id="ytick_4">
     <g id="line2d_11">
      <g>
       <use xlink:href="#mc8d4f123ea" x="46.64" y="153.068881" style="stroke: #000000; stroke-width: 0.8"/>
      </g>
     </g>
     <g id="text_12">
      <!-- 2 -->
      <g transform="translate(33.2775 156.8681) scale(0.1 -0.1)">
       <use xlink:href="#DejaVuSans-32"/>
      </g>
     </g>
    </g>
    <g id="ytick_5">
     <g id="line2d_12">
      <g>
       <use xlink:href="#mc8d4f123ea" x="46.64" y="90.553532" style="stroke: #000000; stroke-width: 0.8"/>
      </g>
     </g>
     <g id="text_13">
      <!-- 4 -->
      <g transform="translate(33.2775 94.35275) scale(0.1 -0.1)">
       <use xlink:href="#DejaVuSans-34"/>
      </g>
     </g>
    </g>
    <g id="ytick_6">
     <g id="line2d_13">
      <g>
       <use xlink:href="#mc8d4f123ea" x="46.64" y="28.038182" style="stroke: #000000; stroke-width: 0.8"/>
      </g>
     </g>
     <g id="text_14">
      <!-- 6 -->
      <g transform="translate(33.2775 31.837401) scale(0.1 -0.1)">
       <use xlink:href="#DejaVuSans-36"/>
      </g>
     </g>
    </g>
    <g id="text_15">
     <!-- Amplitude -->
     <g transform="translate(18.818125 226.042656) rotate(-90) scale(0.1 -0.1)">
      <defs>
       <path id="DejaVuSans-41" d="M 2188 4044 
L 1331 1722 
L 3047 1722 
L 2188 4044 
z
M 1831 4666 
L 2547 4666 
L 4325 0 
L 3669 0 
L 3244 1197 
L 1141 1197 
L 716 0 
L 50 0 
L 1831 4666 
z
" transform="scale(0.015625)"/>
       <path id="DejaVuSans-70" d="M 1159 525 
L 1159 -1331 
L 581 -1331 
L 581 3500 
L 1159 3500 
L 1159 2969 
Q 1341 3281 1617 3432 
Q 1894 3584 2278 3584 
Q 2916 3584 3314 3078 
Q 3713 2572 3713 1747 
Q 3713 922 3314 415 
Q 2916 -91 2278 -91 
Q 1894 -91 1617 61 
Q 1341 213 1159 525 
z
M 3116 1747 
Q 3116 2381 2855 2742 
Q 2594 3103 2138 3103 
Q 1681 3103 1420 2742 
Q 1159 2381 1159 1747 
Q 1159 1113 1420 752 
Q 1681 391 2138 391 
Q 2594 391 2855 752 
Q 3116 1113 3116 1747 
z
" transform="scale(0.015625)"/>
       <path id="DejaVuSans-6c" d="M 603 4863 
L 1178 4863 
L 1178 0 
L 603 0 
L 603 4863 
z
" transform="scale(0.015625)"/>
       <path id="DejaVuSans-74" d="M 1172 4494 
L 1172 3500 
L 2356 3500 
L 2356 3053 
L 1172 3053 
L 1172 1153 
Q 1172 725 1289 603 
Q 1406 481 1766 481 
L 2356 481 
L 2356 0 
L 1766 0 
Q 1100 0 847 248 
Q 594 497 594 1153 
L 594 3053 
L 172 3053 
L 172 3500 
L 594 3500 
L 594 4494 
L 1172 4494 
z
" transform="scale(0.015625)"/>
       <path id="DejaVuSans-75" d="M 544 1381 
L 544 3500 
L 1119 3500 
L 1119 1403 
Q 1119 906 1312 657 
Q 1506 409 1894 409 
Q 2359 409 2629 706 
Q 2900 1003 2900 1516 
L 2900 3500 
L 3475 3500 
L 3475 0 
L 2900 0 
L 2900 538 
Q 2691 219 2414 64 
Q 2138 -91 1772 -91 
Q 1169 -91 856 284 
Q 544 659 544 1381 
z
M 1991 3584 
L 1991 3584 
z
" transform="scale(0.015625)"/>
       <path id="DejaVuSans-64" d="M 2906 2969 
L 2906 4863 
L 3481 4863 
L 3481 0 
L 2906 0 
L 2906 525 
Q 2725 213 2448 61 
Q 2172 -91 1784 -91 
Q 1150 -91 751 415 
Q 353 922 353 1747 
Q 353 2572 751 3078 
Q 1150 3584 1784 3584 
Q 2172 3584 2448 3432 
Q 2725 3281 2906 2969 
z
M 947 1747 
Q 947 1113 1208 752 
Q 1469 391 1925 391 
Q 2381 391 2643 752 
Q 2906 1113 2906 1747 
Q 2906 2381 2643 2742 
Q 2381 3103 1925 3103 
Q 1469 3103 1208 2742 
Q 947 2381 947 1747 
z
" transform="scale(0.015625)"/>
      </defs>
      <use xlink:href="#DejaVuSans-41"/>
      <use xlink:href="#DejaVuSans-6d" transform="translate(68.408203 0)"/>
      <use xlink:href="#DejaVuSans-70" transform="translate(165.820312 0)"/>
      <use xlink:href="#DejaVuSans-6c" transform="translate(229.296875 0)"/>
      <use xlink:href="#DejaVuSans-69" transform="translate(257.080078 0)"/>
      <use xlink:href="#DejaVuSans-74" transform="translate(284.863281 0)"/>
      <use xlink:href="#DejaVuSans-75" transform="translate(324.072266 0)"/>
      <use xlink:href="#DejaVuSans-64" transform="translate(387.451172 0)"/>
      <use xlink:href="#DejaVuSans-65" transform="translate(450.927734 0)"/>
     </g>
    </g>
   </g>
   <g id="line2d_14">
    <path d="M 76.756364 215.584231 
L 88.212037 194.654812 
L 94.84427 183.007301 
L 100.270642 173.931009 
L 105.094083 166.307421 
L 109.314595 160.043266 
L 113.535106 154.209457 
L 117.152687 149.585931 
L 120.770268 145.338172 
L 123.784919 142.102931 
L 126.79957 139.158269 
L 129.814221 136.515828 
L 132.828873 134.18606 
L 135.843524 132.178176 
L 138.255244 130.809005 
L 140.666965 129.654413 
L 143.078686 128.717321 
L 145.490407 128.000103 
L 147.902128 127.504572 
L 150.313848 127.231984 
L 152.725569 127.183028 
L 155.13729 127.357829 
L 157.549011 127.755943 
L 159.960732 128.376363 
L 162.372452 129.21752 
L 164.784173 130.277283 
L 167.195894 131.55297 
L 169.607615 133.041353 
L 172.622266 135.195145 
L 175.636917 137.66683 
L 178.651568 140.446636 
L 181.666219 143.523569 
L 184.68087 146.885463 
L 188.298451 151.277087 
L 191.916032 156.034849 
L 195.533614 161.13166 
L 199.754125 167.467645 
L 204.577567 175.162287 
L 210.003938 184.303594 
L 216.033241 194.925038 
L 224.474263 210.304872 
L 239.547518 237.861626 
L 245.57682 248.419464 
L 251.003192 257.482483 
L 255.826634 265.091633 
L 260.047145 271.341235 
L 264.267657 277.158818 
L 267.885238 281.767198 
L 271.502819 285.998761 
L 274.51747 289.219767 
L 277.532121 292.149585 
L 280.546772 294.77663 
L 283.561423 297.090513 
L 286.576074 299.082083 
L 288.987795 300.437939 
L 291.399516 301.579017 
L 293.811237 302.50243 
L 296.222958 303.205841 
L 298.634678 303.687469 
L 301.046399 303.946094 
L 303.45812 303.981063 
L 305.869841 303.792286 
L 308.281562 303.380243 
L 310.693282 302.745974 
L 313.105003 301.891087 
L 315.516724 300.817744 
L 317.928445 299.528663 
L 320.340166 298.027106 
L 323.354817 295.857207 
L 326.369468 293.369873 
L 329.384119 290.57494 
L 332.39877 287.48346 
L 335.413421 284.107658 
L 339.031002 279.700264 
L 342.648583 274.927821 
L 346.266164 269.8175 
L 350.486676 263.467336 
L 355.310117 255.75871 
L 360.736489 246.604672 
L 366.765791 235.972993 
L 375.206814 220.586034 
L 390.280069 193.037892 
L 396.309371 182.491021 
L 401.735743 173.441364 
L 406.559185 165.846727 
L 410.779696 159.611739 
L 414.397277 154.610902 
L 418.014858 149.957222 
L 421.63244 145.677194 
L 424.647091 142.413581 
L 427.661742 139.439318 
L 430.676393 136.766165 
L 433.691044 134.404694 
L 436.705695 132.364243 
L 439.117416 130.968483 
L 441.529136 129.786897 
L 443.940857 128.822477 
L 446.352578 128.077663 
L 448.764299 127.554341 
L 451.17602 127.253836 
L 453.58774 127.176908 
L 455.999461 127.323751 
L 458.411182 127.693995 
L 460.822903 128.286702 
L 463.234624 129.100371 
L 465.646345 130.132944 
L 468.058065 131.381806 
L 470.469786 132.843797 
L 473.484437 134.96531 
L 476.499088 137.405625 
L 479.513739 140.155094 
L 482.52839 143.202843 
L 485.543041 146.536821 
L 489.160622 150.896775 
L 492.778204 155.625032 
L 496.395785 160.694672 
L 500.616296 167.002112 
L 505.439738 174.668559 
L 510.26318 182.748999 
L 516.292482 193.306837 
L 524.130574 207.532637 
L 541.61555 239.471896 
L 547.644852 249.962369 
L 553.071224 258.943876 
L 557.894666 266.464824 
L 562.115177 272.625819 
L 565.732758 277.556616 
L 569.350339 282.134568 
L 572.967921 286.333611 
L 575.982572 289.526053 
L 578.997223 292.426095 
L 582.011874 295.022271 
L 585.026525 297.304314 
L 588.041176 299.263198 
L 590.452897 300.592384 
L 592.864617 301.706401 
L 595.276338 302.60243 
L 597.688059 303.278204 
L 600.09978 303.732011 
L 602.511501 303.962704 
L 604.923221 303.969698 
L 607.334942 303.752975 
L 609.746663 303.313084 
L 612.158384 302.651139 
L 614.570105 301.768815 
L 616.981825 300.668345 
L 619.393546 299.352515 
L 621.805267 297.824656 
L 624.819918 295.622606 
L 627.834569 293.104049 
L 630.84922 290.278944 
L 633.863871 287.158463 
L 636.878522 283.754945 
L 640.496103 279.316142 
L 644.113685 274.514476 
L 648.334196 268.490496 
L 652.554707 262.056584 
L 657.378149 254.265665 
L 662.804521 245.037139 
L 669.436753 233.258037 
L 679.083636 215.584231 
L 679.083636 215.584231 
" clip-path="url(#pb5705b7000)" style="fill: none; stroke: #4682b4; stroke-width: 1.5; stroke-linecap: square"/>
   </g>
   <g id="line2d_15">
    <path d="M 46.64 127.174176 
L 709.2 127.174176 
" clip-path="url(#pb5705b7000)" style="fill: none; stroke-dasharray: 5.55,2.4; stroke-dashoffset: 0; stroke: #4682b4; stroke-opacity: 0.7; stroke-width: 1.5"/>
   </g>
   <g id="line2d_16">
    <path d="M 46.64 153.068881 
L 709.2 153.068881 
" clip-path="url(#pb5705b7000)" style="fill: none; stroke-dasharray: 1.5,2.475; stroke-dashoffset: 0; stroke: #4682b4; stroke-opacity: 0.7; stroke-width: 1.5"/>
   </g>
   <g id="line2d_17">
    <path d="M 76.756364 215.584231 
L 88.212037 178.365876 
L 94.24134 159.496365 
L 99.667711 143.26337 
L 103.888223 131.267605 
L 108.108734 119.925147 
L 111.726315 110.789789 
L 115.343897 102.251086 
L 118.358548 95.626461 
L 121.373199 89.476202 
L 124.38785 83.824631 
L 127.402501 78.694096 
L 129.814221 74.978519 
L 132.225942 71.618835 
L 134.637663 68.623549 
L 137.049384 66.000242 
L 139.461105 63.755553 
L 141.269895 62.32396 
L 143.078686 61.110594 
L 144.887477 60.117183 
L 146.696267 59.345142 
L 148.505058 58.79557 
L 150.313848 58.469249 
L 152.122639 58.366644 
L 153.93143 58.487902 
L 155.74022 58.832849 
L 157.549011 59.400995 
L 159.357801 60.19153 
L 161.166592 61.203328 
L 162.975383 62.43495 
L 164.784173 63.884642 
L 167.195894 66.15317 
L 169.607615 68.799931 
L 172.019336 71.818223 
L 174.431057 75.200409 
L 176.842777 78.937926 
L 179.857428 84.095013 
L 182.872079 89.772066 
L 185.88673 95.946637 
L 188.901381 102.594308 
L 192.518963 111.158866 
L 196.136544 120.317979 
L 200.357055 131.685314 
L 204.577567 143.70272 
L 209.401008 158.113254 
L 214.82738 175.012678 
L 222.062543 198.314847 
L 241.356309 260.911562 
L 246.782681 277.627949 
L 251.606122 291.826544 
L 255.826634 303.622225 
L 260.047145 314.735764 
L 263.664727 323.653295 
L 267.282308 331.955528 
L 270.296959 338.36982 
L 273.31161 344.298563 
L 276.326261 349.718313 
L 279.340912 354.607636 
L 281.752633 358.124123 
L 284.164353 361.279821 
L 286.576074 364.066742 
L 288.987795 366.477832 
L 291.399516 368.506989 
L 293.208306 369.775086 
L 295.017097 370.82363 
L 296.825888 371.651129 
L 298.634678 372.256404 
L 300.443469 372.638594 
L 302.25226 372.797154 
L 304.06105 372.731858 
L 305.869841 372.4428 
L 307.678631 371.93039 
L 309.487422 371.195359 
L 311.296213 370.238754 
L 313.105003 369.061935 
L 314.913794 367.66658 
L 317.325515 365.469638 
L 319.737235 362.893315 
L 322.148956 359.94413 
L 324.560677 356.62955 
L 326.972398 352.957964 
L 329.384119 348.938664 
L 332.39877 343.441149 
L 335.413421 337.438031 
L 338.428072 330.953049 
L 342.045653 322.571244 
L 345.663234 313.580302 
L 349.280815 304.031411 
L 353.501327 292.258548 
L 358.324768 278.081923 
L 363.75114 261.384752 
L 370.383372 240.202926 
L 394.500581 162.27744 
L 399.926952 145.910049 
L 404.750394 132.103853 
L 408.970905 120.711752 
L 412.588487 111.528976 
L 416.206068 102.938646 
L 419.823649 94.989672 
L 422.8383 88.88822 
L 425.852951 83.28778 
L 428.867602 78.210499 
L 431.279323 74.538912 
L 433.691044 71.224332 
L 436.102765 68.275148 
L 438.514485 65.698824 
L 440.926206 63.501882 
L 442.734997 62.106527 
L 444.543787 60.929709 
L 446.352578 59.973103 
L 448.161369 59.238072 
L 449.970159 58.725663 
L 451.77895 58.436604 
L 453.58774 58.371308 
L 455.396531 58.529868 
L 457.205322 58.912058 
L 459.014112 59.517333 
L 460.822903 60.344832 
L 462.631694 61.393377 
L 464.440484 62.661474 
L 466.249275 64.147318 
L 468.660996 66.463459 
L 471.072716 69.157047 
L 473.484437 72.221263 
L 475.896158 75.648352 
L 478.307879 79.429639 
L 481.32253 84.639674 
L 484.337181 90.367522 
L 487.351832 96.590534 
L 490.366483 103.284099 
L 493.984064 111.900115 
L 497.601645 121.106464 
L 501.822157 132.523218 
L 506.042668 144.58355 
L 510.86611 159.034767 
L 516.895412 177.885705 
L 524.733504 203.236744 
L 541.01262 256.155784 
L 547.041922 274.891379 
L 551.865364 289.218836 
L 556.085875 301.148965 
L 560.306386 312.416118 
L 563.923968 321.479671 
L 567.541549 329.940301 
L 570.5562 336.495397 
L 573.570851 342.572356 
L 576.585502 348.147147 
L 579.600153 353.197726 
L 582.011874 356.847262 
L 584.423595 360.139241 
L 586.835315 363.065331 
L 589.247036 365.618124 
L 591.658757 367.79116 
L 593.467548 369.168376 
L 595.276338 370.326903 
L 597.085129 371.265091 
L 598.893919 371.981606 
L 600.70271 372.475426 
L 602.511501 372.745849 
L 604.320291 372.79249 
L 606.129082 372.615281 
L 607.937872 372.214476 
L 609.746663 371.590644 
L 611.555454 370.744676 
L 613.364244 369.677774 
L 615.173035 368.391458 
L 616.981825 366.88756 
L 619.393546 364.547646 
L 621.805267 361.830685 
L 624.216988 358.743552 
L 626.628709 355.294062 
L 629.04043 351.490947 
L 632.055081 346.254514 
L 635.069732 340.501353 
L 638.084383 334.254214 
L 641.099034 327.5378 
L 644.716615 318.896184 
L 648.334196 309.666352 
L 652.554707 298.225059 
L 656.775219 286.143443 
L 661.59866 271.672097 
L 667.627963 252.802587 
L 675.466055 227.438776 
L 679.083636 215.584231 
L 679.083636 215.584231 
" clip-path="url(#pb5705b7000)" style="fill: none; stroke: #ff8c00; stroke-width: 1.5; stroke-linecap: square"/>
   </g>
   <g id="line2d_18">
    <path d="M 46.64 58.36645 
L 709.2 58.36645 
" clip-path="url(#pb5705b7000)" style="fill: none; stroke-dasharray: 5.55,2.4; stroke-dashoffset: 0; stroke: #ff8c00; stroke-opacity: 0.7; stroke-width: 1.5"/>
   </g>
   <g id="line2d_19">
    <path d="M 46.64 104.414472 
L 709.2 104.414472 
" clip-path="url(#pb5705b7000)" style="fill: none; stroke-dasharray: 1.5,2.475; stroke-dashoffset: 0; stroke: #ff8c00; stroke-opacity: 0.7; stroke-width: 1.5"/>
   </g>
   <g id="line2d_20">
    <path d="M 46.64 28.038182 
L 709.2 28.038182 
" clip-path="url(#pb5705b7000)" style="fill: none; stroke-dasharray: 1.5,2.475; stroke-dashoffset: 0; stroke: #ff0000; stroke-opacity: 0.8; stroke-width: 1.5"/>
   </g>
   <g id="line2d_21">
    <path d="M 46.64 215.584231 
L 709.2 215.584231 
" clip-path="url(#pb5705b7000)" style="fill: none; stroke: #000000; stroke-linecap: square"/>
   </g>
   <g id="patch_3">
    <path d="M 46.64 390.04 
L 46.64 10.8 
" style="fill: none; stroke: #000000; stroke-width: 0.8; stroke-linejoin: miter; stroke-linecap: square"/>
   </g>
   <g id="patch_4">
    <path d="M 709.2 390.04 
L 709.2 10.8 
" style="fill: none; stroke: #000000; stroke-width: 0.8; stroke-linejoin: miter; stroke-linecap: square"/>
   </g>
   <g id="patch_5">
    <path d="M 46.64 390.04 
L 709.2 390.04 
" style="fill: none; stroke: #000000; stroke-width: 0.8; stroke-linejoin: miter; stroke-linecap: square"/>
   </g>
   <g id="patch_6">
    <path d="M 46.64 10.8 
L 709.2 10.8 
" style="fill: none; stroke: #000000; stroke-width: 0.8; stroke-linejoin: miter; stroke-linecap: square"/>
   </g>
   <g id="legend_1">
    <g id="patch_7">
     <path d="M 587.3 121.546875 
L 702.2 121.546875 
Q 704.2 121.546875 704.2 119.546875 
L 704.2 17.8 
Q 704.2 15.8 702.2 15.8 
L 587.3 15.8 
Q 585.3 15.8 585.3 17.8 
L 585.3 119.546875 
Q 585.3 121.546875 587.3 121.546875 
z
" style="fill: #ffffff; opacity: 0.8; stroke: #cccccc; stroke-linejoin: miter"/>
    </g>
    <g id="line2d_22">
     <path d="M 589.3 23.898438 
L 599.3 23.898438 
L 609.3 23.898438 
" style="fill: none; stroke: #4682b4; stroke-width: 1.5; stroke-linecap: square"/>
    </g>
    <g id="text_16">
     <!-- $V_{in}$ -->
     <g transform="translate(617.3 27.398438) scale(0.1 -0.1)">
      <defs>
       <path id="DejaVuSans-Oblique-56" d="M 1319 0 
L 500 4666 
L 1119 4666 
L 1797 653 
L 4063 4666 
L 4750 4666 
L 2053 0 
L 1319 0 
z
" transform="scale(0.015625)"/>
       <path id="DejaVuSans-Oblique-69" d="M 1172 4863 
L 1747 4863 
L 1606 4134 
L 1031 4134 
L 1172 4863 
z
M 909 3500 
L 1484 3500 
L 800 0 
L 225 0 
L 909 3500 
z
" transform="scale(0.015625)"/>
       <path id="DejaVuSans-Oblique-6e" d="M 3566 2113 
L 3156 0 
L 2578 0 
L 2988 2091 
Q 3016 2238 3031 2350 
Q 3047 2463 3047 2528 
Q 3047 2791 2881 2937 
Q 2716 3084 2419 3084 
Q 1956 3084 1622 2776 
Q 1288 2469 1184 1941 
L 800 0 
L 225 0 
L 903 3500 
L 1478 3500 
L 1363 2950 
Q 1603 3253 1940 3418 
Q 2278 3584 2650 3584 
Q 3113 3584 3367 3334 
Q 3622 3084 3622 2631 
Q 3622 2519 3608 2391 
Q 3594 2263 3566 2113 
z
" transform="scale(0.015625)"/>
      </defs>
      <use xlink:href="#DejaVuSans-Oblique-56" transform="translate(0 0.09375)"/>
      <use xlink:href="#DejaVuSans-Oblique-69" transform="translate(68.408203 -16.3125) scale(0.7)"/>
      <use xlink:href="#DejaVuSans-Oblique-6e" transform="translate(87.856445 -16.3125) scale(0.7)"/>
     </g>
    </g>
    <g id="line2d_23">
     <path d="M 589.3 38.576563 
L 599.3 38.576563 
L 609.3 38.576563 
" style="fill: none; stroke-dasharray: 5.55,2.4; stroke-dashoffset: 0; stroke: #4682b4; stroke-opacity: 0.7; stroke-width: 1.5"/>
    </g>
    <g id="text_17">
     <!-- Peak $V_{in}$ = 2.83 -->
     <g transform="translate(617.3 42.076563) scale(0.1 -0.1)">
      <defs>
       <path id="DejaVuSans-50" d="M 1259 4147 
L 1259 2394 
L 2053 2394 
Q 2494 2394 2734 2622 
Q 2975 2850 2975 3272 
Q 2975 3691 2734 3919 
Q 2494 4147 2053 4147 
L 1259 4147 
z
M 628 4666 
L 2053 4666 
Q 2838 4666 3239 4311 
Q 3641 3956 3641 3272 
Q 3641 2581 3239 2228 
Q 2838 1875 2053 1875 
L 1259 1875 
L 1259 0 
L 628 0 
L 628 4666 
z
" transform="scale(0.015625)"/>
       <path id="DejaVuSans-61" d="M 2194 1759 
Q 1497 1759 1228 1600 
Q 959 1441 959 1056 
Q 959 750 1161 570 
Q 1363 391 1709 391 
Q 2188 391 2477 730 
Q 2766 1069 2766 1631 
L 2766 1759 
L 2194 1759 
z
M 3341 1997 
L 3341 0 
L 2766 0 
L 2766 531 
Q 2569 213 2275 61 
Q 1981 -91 1556 -91 
Q 1019 -91 701 211 
Q 384 513 384 1019 
Q 384 1609 779 1909 
Q 1175 2209 1959 2209 
L 2766 2209 
L 2766 2266 
Q 2766 2663 2505 2880 
Q 2244 3097 1772 3097 
Q 1472 3097 1187 3025 
Q 903 2953 641 2809 
L 641 3341 
Q 956 3463 1253 3523 
Q 1550 3584 1831 3584 
Q 2591 3584 2966 3190 
Q 3341 2797 3341 1997 
z
" transform="scale(0.015625)"/>
       <path id="DejaVuSans-6b" d="M 581 4863 
L 1159 4863 
L 1159 1991 
L 2875 3500 
L 3609 3500 
L 1753 1863 
L 3688 0 
L 2938 0 
L 1159 1709 
L 1159 0 
L 581 0 
L 581 4863 
z
" transform="scale(0.015625)"/>
       <path id="DejaVuSans-20" transform="scale(0.015625)"/>
       <path id="DejaVuSans-3d" d="M 678 2906 
L 4684 2906 
L 4684 2381 
L 678 2381 
L 678 2906 
z
M 678 1631 
L 4684 1631 
L 4684 1100 
L 678 1100 
L 678 1631 
z
" transform="scale(0.015625)"/>
       <path id="DejaVuSans-2e" d="M 684 794 
L 1344 794 
L 1344 0 
L 684 0 
L 684 794 
z
" transform="scale(0.015625)"/>
       <path id="DejaVuSans-33" d="M 2597 2516 
Q 3050 2419 3304 2112 
Q 3559 1806 3559 1356 
Q 3559 666 3084 287 
Q 2609 -91 1734 -91 
Q 1441 -91 1130 -33 
Q 819 25 488 141 
L 488 750 
Q 750 597 1062 519 
Q 1375 441 1716 441 
Q 2309 441 2620 675 
Q 2931 909 2931 1356 
Q 2931 1769 2642 2001 
Q 2353 2234 1838 2234 
L 1294 2234 
L 1294 2753 
L 1863 2753 
Q 2328 2753 2575 2939 
Q 2822 3125 2822 3475 
Q 2822 3834 2567 4026 
Q 2313 4219 1838 4219 
Q 1578 4219 1281 4162 
Q 984 4106 628 3988 
L 628 4550 
Q 988 4650 1302 4700 
Q 1616 4750 1894 4750 
Q 2613 4750 3031 4423 
Q 3450 4097 3450 3541 
Q 3450 3153 3228 2886 
Q 3006 2619 2597 2516 
z
" transform="scale(0.015625)"/>
      </defs>
      <use xlink:href="#DejaVuSans-50" transform="translate(0 0.015625)"/>
      <use xlink:href="#DejaVuSans-65" transform="translate(60.302734 0.015625)"/>
      <use xlink:href="#DejaVuSans-61" transform="translate(121.826172 0.015625)"/>
      <use xlink:href="#DejaVuSans-6b" transform="translate(183.105469 0.015625)"/>
      <use xlink:href="#DejaVuSans-20" transform="translate(241.015625 0.015625)"/>
      <use xlink:href="#DejaVuSans-Oblique-56" transform="translate(272.802734 0.015625)"/>
      <use xlink:href="#DejaVuSans-Oblique-69" transform="translate(341.210938 -16.390625) scale(0.7)"/>
      <use xlink:href="#DejaVuSans-Oblique-6e" transform="translate(360.65918 -16.390625) scale(0.7)"/>
      <use xlink:href="#DejaVuSans-20" transform="translate(407.758789 0.015625)"/>
      <use xlink:href="#DejaVuSans-3d" transform="translate(439.545898 0.015625)"/>
      <use xlink:href="#DejaVuSans-20" transform="translate(523.334961 0.015625)"/>
      <use xlink:href="#DejaVuSans-32" transform="translate(555.12207 0.015625)"/>
      <use xlink:href="#DejaVuSans-2e" transform="translate(618.745117 0.015625)"/>
      <use xlink:href="#DejaVuSans-38" transform="translate(647.907227 0.015625)"/>
      <use xlink:href="#DejaVuSans-33" transform="translate(711.530273 0.015625)"/>
     </g>
    </g>
    <g id="line2d_24">
     <path d="M 589.3 53.254687 
L 599.3 53.254687 
L 609.3 53.254687 
" style="fill: none; stroke-dasharray: 1.5,2.475; stroke-dashoffset: 0; stroke: #4682b4; stroke-opacity: 0.7; stroke-width: 1.5"/>
    </g>
    <g id="text_18">
     <!-- RMS $V_{in}$ = 2.00 -->
     <g transform="translate(617.3 56.754687) scale(0.1 -0.1)">
      <defs>
       <path id="DejaVuSans-52" d="M 2841 2188 
Q 3044 2119 3236 1894 
Q 3428 1669 3622 1275 
L 4263 0 
L 3584 0 
L 2988 1197 
Q 2756 1666 2539 1819 
Q 2322 1972 1947 1972 
L 1259 1972 
L 1259 0 
L 628 0 
L 628 4666 
L 2053 4666 
Q 2853 4666 3247 4331 
Q 3641 3997 3641 3322 
Q 3641 2881 3436 2590 
Q 3231 2300 2841 2188 
z
M 1259 4147 
L 1259 2491 
L 2053 2491 
Q 2509 2491 2742 2702 
Q 2975 2913 2975 3322 
Q 2975 3731 2742 3939 
Q 2509 4147 2053 4147 
L 1259 4147 
z
" transform="scale(0.015625)"/>
       <path id="DejaVuSans-4d" d="M 628 4666 
L 1569 4666 
L 2759 1491 
L 3956 4666 
L 4897 4666 
L 4897 0 
L 4281 0 
L 4281 4097 
L 3078 897 
L 2444 897 
L 1241 4097 
L 1241 0 
L 628 0 
L 628 4666 
z
" transform="scale(0.015625)"/>
       <path id="DejaVuSans-53" d="M 3425 4513 
L 3425 3897 
Q 3066 4069 2747 4153 
Q 2428 4238 2131 4238 
Q 1616 4238 1336 4038 
Q 1056 3838 1056 3469 
Q 1056 3159 1242 3001 
Q 1428 2844 1947 2747 
L 2328 2669 
Q 3034 2534 3370 2195 
Q 3706 1856 3706 1288 
Q 3706 609 3251 259 
Q 2797 -91 1919 -91 
Q 1588 -91 1214 -16 
Q 841 59 441 206 
L 441 856 
Q 825 641 1194 531 
Q 1563 422 1919 422 
Q 2459 422 2753 634 
Q 3047 847 3047 1241 
Q 3047 1584 2836 1778 
Q 2625 1972 2144 2069 
L 1759 2144 
Q 1053 2284 737 2584 
Q 422 2884 422 3419 
Q 422 4038 858 4394 
Q 1294 4750 2059 4750 
Q 2388 4750 2728 4690 
Q 3069 4631 3425 4513 
z
" transform="scale(0.015625)"/>
      </defs>
      <use xlink:href="#DejaVuSans-52" transform="translate(0 0.78125)"/>
      <use xlink:href="#DejaVuSans-4d" transform="translate(69.482422 0.78125)"/>
      <use xlink:href="#DejaVuSans-53" transform="translate(155.761719 0.78125)"/>
      <use xlink:href="#DejaVuSans-20" transform="translate(219.238281 0.78125)"/>
      <use xlink:href="#DejaVuSans-Oblique-56" transform="translate(251.025391 0.78125)"/>
      <use xlink:href="#DejaVuSans-Oblique-69" transform="translate(319.433594 -15.625) scale(0.7)"/>
      <use xlink:href="#DejaVuSans-Oblique-6e" transform="translate(338.881836 -15.625) scale(0.7)"/>
      <use xlink:href="#DejaVuSans-20" transform="translate(385.981445 0.78125)"/>
      <use xlink:href="#DejaVuSans-3d" transform="translate(417.768555 0.78125)"/>
      <use xlink:href="#DejaVuSans-20" transform="translate(501.557617 0.78125)"/>
      <use xlink:href="#DejaVuSans-32" transform="translate(533.344727 0.78125)"/>
      <use xlink:href="#DejaVuSans-2e" transform="translate(596.967773 0.78125)"/>
      <use xlink:href="#DejaVuSans-30" transform="translate(628.754883 0.78125)"/>
      <use xlink:href="#DejaVuSans-30" transform="translate(692.37793 0.78125)"/>
     </g>
    </g>
    <g id="line2d_25">
     <path d="M 589.3 67.932813 
L 599.3 67.932813 
L 609.3 67.932813 
" style="fill: none; stroke: #ff8c00; stroke-width: 1.5; stroke-linecap: square"/>
    </g>
    <g id="text_19">
     <!-- $V_{out}$ (+5.0 dB) -->
     <g transform="translate(617.3 71.432813) scale(0.1 -0.1)">
      <defs>
       <path id="DejaVuSans-Oblique-6f" d="M 1625 -91 
Q 1009 -91 651 289 
Q 294 669 294 1325 
Q 294 1706 417 2101 
Q 541 2497 738 2766 
Q 1047 3184 1428 3384 
Q 1809 3584 2291 3584 
Q 2888 3584 3255 3212 
Q 3622 2841 3622 2241 
Q 3622 1825 3500 1412 
Q 3378 1000 3181 728 
Q 2875 309 2494 109 
Q 2113 -91 1625 -91 
z
M 891 1344 
Q 891 869 1089 633 
Q 1288 397 1691 397 
Q 2269 397 2648 901 
Q 3028 1406 3028 2181 
Q 3028 2634 2825 2865 
Q 2622 3097 2228 3097 
Q 1903 3097 1650 2945 
Q 1397 2794 1197 2484 
Q 1050 2253 970 1956 
Q 891 1659 891 1344 
z
" transform="scale(0.015625)"/>
       <path id="DejaVuSans-Oblique-75" d="M 428 1388 
L 838 3500 
L 1416 3500 
L 1006 1409 
Q 975 1256 961 1147 
Q 947 1038 947 966 
Q 947 700 1109 554 
Q 1272 409 1569 409 
Q 2031 409 2368 721 
Q 2706 1034 2809 1563 
L 3194 3500 
L 3769 3500 
L 3091 0 
L 2516 0 
L 2631 550 
Q 2388 244 2052 76 
Q 1716 -91 1338 -91 
Q 878 -91 622 161 
Q 366 413 366 863 
Q 366 956 381 1097 
Q 397 1238 428 1388 
z
" transform="scale(0.015625)"/>
       <path id="DejaVuSans-Oblique-74" d="M 2706 3500 
L 2619 3053 
L 1472 3053 
L 1100 1153 
Q 1081 1047 1072 975 
Q 1063 903 1063 863 
Q 1063 663 1183 572 
Q 1303 481 1569 481 
L 2150 481 
L 2053 0 
L 1503 0 
Q 991 0 739 200 
Q 488 400 488 806 
Q 488 878 497 964 
Q 506 1050 525 1153 
L 897 3053 
L 409 3053 
L 500 3500 
L 978 3500 
L 1172 4494 
L 1747 4494 
L 1556 3500 
L 2706 3500 
z
" transform="scale(0.015625)"/>
       <path id="DejaVuSans-28" d="M 1984 4856 
Q 1566 4138 1362 3434 
Q 1159 2731 1159 2009 
Q 1159 1288 1364 580 
Q 1569 -128 1984 -844 
L 1484 -844 
Q 1016 -109 783 600 
Q 550 1309 550 2009 
Q 550 2706 781 3412 
Q 1013 4119 1484 4856 
L 1984 4856 
z
" transform="scale(0.015625)"/>
       <path id="DejaVuSans-2b" d="M 2944 4013 
L 2944 2272 
L 4684 2272 
L 4684 1741 
L 2944 1741 
L 2944 0 
L 2419 0 
L 2419 1741 
L 678 1741 
L 678 2272 
L 2419 2272 
L 2419 4013 
L 2944 4013 
z
" transform="scale(0.015625)"/>
       <path id="DejaVuSans-35" d="M 691 4666 
L 3169 4666 
L 3169 4134 
L 1269 4134 
L 1269 2991 
Q 1406 3038 1543 3061 
Q 1681 3084 1819 3084 
Q 2600 3084 3056 2656 
Q 3513 2228 3513 1497 
Q 3513 744 3044 326 
Q 2575 -91 1722 -91 
Q 1428 -91 1123 -41 
Q 819 9 494 109 
L 494 744 
Q 775 591 1075 516 
Q 1375 441 1709 441 
Q 2250 441 2565 725 
Q 2881 1009 2881 1497 
Q 2881 1984 2565 2268 
Q 2250 2553 1709 2553 
Q 1456 2553 1204 2497 
Q 953 2441 691 2322 
L 691 4666 
z
" transform="scale(0.015625)"/>
       <path id="DejaVuSans-42" d="M 1259 2228 
L 1259 519 
L 2272 519 
Q 2781 519 3026 730 
Q 3272 941 3272 1375 
Q 3272 1813 3026 2020 
Q 2781 2228 2272 2228 
L 1259 2228 
z
M 1259 4147 
L 1259 2741 
L 2194 2741 
Q 2656 2741 2882 2914 
Q 3109 3088 3109 3444 
Q 3109 3797 2882 3972 
Q 2656 4147 2194 4147 
L 1259 4147 
z
M 628 4666 
L 2241 4666 
Q 2963 4666 3353 4366 
Q 3744 4066 3744 3513 
Q 3744 3084 3544 2831 
Q 3344 2578 2956 2516 
Q 3422 2416 3680 2098 
Q 3938 1781 3938 1306 
Q 3938 681 3513 340 
Q 3088 0 2303 0 
L 628 0 
L 628 4666 
z
" transform="scale(0.015625)"/>
       <path id="DejaVuSans-29" d="M 513 4856 
L 1013 4856 
Q 1481 4119 1714 3412 
Q 1947 2706 1947 2009 
Q 1947 1309 1714 600 
Q 1481 -109 1013 -844 
L 513 -844 
Q 928 -128 1133 580 
Q 1338 1288 1338 2009 
Q 1338 2731 1133 3434 
Q 928 4138 513 4856 
z
" transform="scale(0.015625)"/>
      </defs>
      <use xlink:href="#DejaVuSans-Oblique-56" transform="translate(0 0.015625)"/>
      <use xlink:href="#DejaVuSans-Oblique-6f" transform="translate(68.408203 -16.390625) scale(0.7)"/>
      <use xlink:href="#DejaVuSans-Oblique-75" transform="translate(111.235352 -16.390625) scale(0.7)"/>
      <use xlink:href="#DejaVuSans-Oblique-74" transform="translate(155.600586 -16.390625) scale(0.7)"/>
      <use xlink:href="#DejaVuSans-20" transform="translate(185.78125 0.015625)"/>
      <use xlink:href="#DejaVuSans-28" transform="translate(217.568359 0.015625)"/>
      <use xlink:href="#DejaVuSans-2b" transform="translate(256.582031 0.015625)"/>
      <use xlink:href="#DejaVuSans-35" transform="translate(340.371094 0.015625)"/>
      <use xlink:href="#DejaVuSans-2e" transform="translate(403.994141 0.015625)"/>
      <use xlink:href="#DejaVuSans-30" transform="translate(435.78125 0.015625)"/>
      <use xlink:href="#DejaVuSans-20" transform="translate(499.404297 0.015625)"/>
      <use xlink:href="#DejaVuSans-64" transform="translate(531.191406 0.015625)"/>
      <use xlink:href="#DejaVuSans-42" transform="translate(594.667969 0.015625)"/>
      <use xlink:href="#DejaVuSans-29" transform="translate(663.271484 0.015625)"/>
     </g>
    </g>
    <g id="line2d_26">
     <path d="M 589.3 82.610937 
L 599.3 82.610937 
L 609.3 82.610937 
" style="fill: none; stroke-dasharray: 5.55,2.4; stroke-dashoffset: 0; stroke: #ff8c00; stroke-opacity: 0.7; stroke-width: 1.5"/>
    </g>
    <g id="text_20">
     <!-- Peak $V_{out}$ = 5.03 -->
     <g transform="translate(617.3 86.110937) scale(0.1 -0.1)">
      <use xlink:href="#DejaVuSans-50" transform="translate(0 0.015625)"/>
      <use xlink:href="#DejaVuSans-65" transform="translate(60.302734 0.015625)"/>
      <use xlink:href="#DejaVuSans-61" transform="translate(121.826172 0.015625)"/>
      <use xlink:href="#DejaVuSans-6b" transform="translate(183.105469 0.015625)"/>
      <use xlink:href="#DejaVuSans-20" transform="translate(241.015625 0.015625)"/>
      <use xlink:href="#DejaVuSans-Oblique-56" transform="translate(272.802734 0.015625)"/>
      <use xlink:href="#DejaVuSans-Oblique-6f" transform="translate(341.210938 -16.390625) scale(0.7)"/>
      <use xlink:href="#DejaVuSans-Oblique-75" transform="translate(384.038086 -16.390625) scale(0.7)"/>
      <use xlink:href="#DejaVuSans-Oblique-74" transform="translate(428.40332 -16.390625) scale(0.7)"/>
      <use xlink:href="#DejaVuSans-20" transform="translate(458.583984 0.015625)"/>
      <use xlink:href="#DejaVuSans-3d" transform="translate(490.371094 0.015625)"/>
      <use xlink:href="#DejaVuSans-20" transform="translate(574.160156 0.015625)"/>
      <use xlink:href="#DejaVuSans-35" transform="translate(605.947266 0.015625)"/>
      <use xlink:href="#DejaVuSans-2e" transform="translate(669.570312 0.015625)"/>
      <use xlink:href="#DejaVuSans-30" transform="translate(701.357422 0.015625)"/>
      <use xlink:href="#DejaVuSans-33" transform="translate(764.980469 0.015625)"/>
     </g>
    </g>
    <g id="line2d_27">
     <path d="M 589.3 97.289062 
L 599.3 97.289062 
L 609.3 97.289062 
" style="fill: none; stroke-dasharray: 1.5,2.475; stroke-dashoffset: 0; stroke: #ff8c00; stroke-opacity: 0.7; stroke-width: 1.5"/>
    </g>
    <g id="text_21">
     <!-- RMS $V_{out}$ = 3.56 -->
     <g transform="translate(617.3 100.789062) scale(0.1 -0.1)">
      <use xlink:href="#DejaVuSans-52" transform="translate(0 0.78125)"/>
      <use xlink:href="#DejaVuSans-4d" transform="translate(69.482422 0.78125)"/>
      <use xlink:href="#DejaVuSans-53" transform="translate(155.761719 0.78125)"/>
      <use xlink:href="#DejaVuSans-20" transform="translate(219.238281 0.78125)"/>
      <use xlink:href="#DejaVuSans-Oblique-56" transform="translate(251.025391 0.78125)"/>
      <use xlink:href="#DejaVuSans-Oblique-6f" transform="translate(319.433594 -15.625) scale(0.7)"/>
      <use xlink:href="#DejaVuSans-Oblique-75" transform="translate(362.260742 -15.625) scale(0.7)"/>
      <use xlink:href="#DejaVuSans-Oblique-74" transform="translate(406.625977 -15.625) scale(0.7)"/>
      <use xlink:href="#DejaVuSans-20" transform="translate(436.806641 0.78125)"/>
      <use xlink:href="#DejaVuSans-3d" transform="translate(468.59375 0.78125)"/>
      <use xlink:href="#DejaVuSans-20" transform="translate(552.382812 0.78125)"/>
      <use xlink:href="#DejaVuSans-33" transform="translate(584.169922 0.78125)"/>
      <use xlink:href="#DejaVuSans-2e" transform="translate(647.792969 0.78125)"/>
      <use xlink:href="#DejaVuSans-35" transform="translate(679.580078 0.78125)"/>
      <use xlink:href="#DejaVuSans-36" transform="translate(743.203125 0.78125)"/>
     </g>
    </g>
    <g id="line2d_28">
     <path d="M 589.3 111.967188 
L 599.3 111.967188 
L 609.3 111.967188 
" style="fill: none; stroke-dasharray: 1.5,2.475; stroke-dashoffset: 0; stroke: #ff0000; stroke-opacity: 0.8; stroke-width: 1.5"/>
    </g>
    <g id="text_22">
     <!-- Clip limit = 6.00 -->
     <g transform="translate(617.3 115.467188) scale(0.1 -0.1)">
      <defs>
       <path id="DejaVuSans-43" d="M 4122 4306 
L 4122 3641 
Q 3803 3938 3442 4084 
Q 3081 4231 2675 4231 
Q 1875 4231 1450 3742 
Q 1025 3253 1025 2328 
Q 1025 1406 1450 917 
Q 1875 428 2675 428 
Q 3081 428 3442 575 
Q 3803 722 4122 1019 
L 4122 359 
Q 3791 134 3420 21 
Q 3050 -91 2638 -91 
Q 1578 -91 968 557 
Q 359 1206 359 2328 
Q 359 3453 968 4101 
Q 1578 4750 2638 4750 
Q 3056 4750 3426 4639 
Q 3797 4528 4122 4306 
z
" transform="scale(0.015625)"/>
      </defs>
      <use xlink:href="#DejaVuSans-43"/>
      <use xlink:href="#DejaVuSans-6c" transform="translate(69.824219 0)"/>
      <use xlink:href="#DejaVuSans-69" transform="translate(97.607422 0)"/>
      <use xlink:href="#DejaVuSans-70" transform="translate(125.390625 0)"/>
      <use xlink:href="#DejaVuSans-20" transform="translate(188.867188 0)"/>
      <use xlink:href="#DejaVuSans-6c" transform="translate(220.654297 0)"/>
      <use xlink:href="#DejaVuSans-69" transform="translate(248.4375 0)"/>
      <use xlink:href="#DejaVuSans-6d" transform="translate(276.220703 0)"/>
      <use xlink:href="#DejaVuSans-69" transform="translate(373.632812 0)"/>
      <use xlink:href="#DejaVuSans-74" transform="translate(401.416016 0)"/>
      <use xlink:href="#DejaVuSans-20" transform="translate(440.625 0)"/>
      <use xlink:href="#DejaVuSans-3d" transform="translate(472.412109 0)"/>
      <use xlink:href="#DejaVuSans-20" transform="translate(556.201172 0)"/>
      <use xlink:href="#DejaVuSans-36" transform="translate(587.988281 0)"/>
      <use xlink:href="#DejaVuSans-2e" transform="translate(651.611328 0)"/>
      <use xlink:href="#DejaVuSans-30" transform="translate(683.398438 0)"/>
      <use xlink:href="#DejaVuSans-30" transform="translate(747.021484 0)"/>
     </g>
    </g>
   </g>
  </g>
 </g>
 <defs>
  <clipPath id="pb5705b7000">
   <rect x="46.64" y="10.8" width="662.56" height="379.24"/>
  </clipPath>
 </defs>
</svg>
