<?xml version="1.0" encoding="utf-8" standalone="no"?>
<!DOCTYPE svg PUBLIC "-//W3C//DTD SVG 1.1//EN"
  "http://www.w3.org/Graphics/SVG/1.1/DTD/svg11.dtd">
<svg xmlns:xlink="http://www.w3.org/1999/xlink" width="720pt" height="432pt" viewBox="0 0 720 432" xmlns="http://www.w3.org/2000/svg" version="1.1">
 <metadata>
  <rdf:RDF xmlns:dc="http://purl.org/dc/elements/1.1/" xmlns:cc="http://creativecommons.org/ns#" xmlns:rdf="http://www.w3.org/1999/02/22-rdf-syntax-ns#">
   <cc:Work>
    <dc:type rdf:resource="http://purl.org/dc/dcmitype/StillImage"/>
    <dc:date>2026-03-23T21:00:25.140857</dc:date>
    <dc:format>image/svg+xml</dc:format>
    <dc:creator>
     <cc:Agent>
      <dc:title>Matplotlib v3.10.8, https://matplotlib.org/</dc:title>
     </cc:Agent>
    </dc:creator>
   </cc:Work>
  </rdf:RDF>
 </metadata>
 <defs>
  <style type="text/css">*{stroke-linejoin: round; stroke-linecap: butt}</style>
 </defs>
 <g id="figure_1">
  <g id="patch_1">
   <path d="M 0 432 
L 720 432 
L 720 0 
L 0 0 
z
" style="fill: #ffffff"/>
  </g>
  <g id="axes_1">
   <g id="patch_2">
    <path d="M 46.64 390.04 
L 709.2 390.04 
L 709.2 10.8 
L 46.64 10.8 
z
" style="fill: #ffffff"/>
   </g>
   <g id="matplotlib.axis_1">
    <g id="xtick_1">
     <g id="line2d_1">
      <defs>
       <path id="m05aa315b2a" d="M 0 0 
L 0 3.5 
" style="stroke: #000000; stroke-width: 0.8"/>
      </defs>
      <g>
       <use xlink:href="#m05aa315b2a" x="76.756364" y="390.04" style="stroke: #000000; stroke-width: 0.8"/>
      </g>
     </g>
     <g id="text_1">
      <!-- 0 -->
      <g transform="translate(73.575114 404.638438) scale(0.1 -0.1)">
       <defs>
        <path id="DejaVuSans-30" d="M 2034 4250 
Q 1547 4250 1301 3770 
Q 1056 3291 1056 2328 
Q 1056 1369 1301 889 
Q 1547 409 2034 409 
Q 2525 409 2770 889 
Q 3016 1369 3016 2328 
Q 3016 3291 2770 3770 
Q 2525 4250 2034 4250 
z
M 2034 4750 
Q 2819 4750 3233 4129 
Q 3647 3509 3647 2328 
Q 3647 1150 3233 529 
Q 2819 -91 2034 -91 
Q 1250 -91 836 529 
Q 422 1150 422 2328 
Q 422 3509 836 4129 
Q 1250 4750 2034 4750 
z
" transform="scale(0.015625)"/>
       </defs>
       <use xlink:href="#DejaVuSans-30"/>
      </g>
     </g>
    </g>
    <g id="xtick_2">
     <g id="line2d_2">
      <g>
       <use xlink:href="#m05aa315b2a" x="172.619726" y="390.04" style="stroke: #000000; stroke-width: 0.8"/>
      </g>
     </g>
     <g id="text_2">
      <!-- 2 -->
      <g transform="translate(169.438476 404.638438) scale(0.1 -0.1)">
       <defs>
        <path id="DejaVuSans-32" d="M 1228 531 
L 3431 531 
L 3431 0 
L 469 0 
L 469 531 
Q 828 903 1448 1529 
Q 2069 2156 2228 2338 
Q 2531 2678 2651 2914 
Q 2772 3150 2772 3378 
Q 2772 3750 2511 3984 
Q 2250 4219 1831 4219 
Q 1534 4219 1204 4116 
Q 875 4013 500 3803 
L 500 4441 
Q 881 4594 1212 4672 
Q 1544 4750 1819 4750 
Q 2544 4750 2975 4387 
Q 3406 4025 3406 3419 
Q 3406 3131 3298 2873 
Q 3191 2616 2906 2266 
Q 2828 2175 2409 1742 
Q 1991 1309 1228 531 
z
" transform="scale(0.015625)"/>
       </defs>
       <use xlink:href="#DejaVuSans-32"/>
      </g>
     </g>
    </g>
    <g id="xtick_3">
     <g id="line2d_3">
      <g>
       <use xlink:href="#m05aa315b2a" x="268.483089" y="390.04" style="stroke: #000000; stroke-width: 0.8"/>
      </g>
     </g>
     <g id="text_3">
      <!-- 4 -->
      <g transform="translate(265.301839 404.638438) scale(0.1 -0.1)">
       <defs>
        <path id="DejaVuSans-34" d="M 2419 4116 
L 825 1625 
L 2419 1625 
L 2419 4116 
z
M 2253 4666 
L 3047 4666 
L 3047 1625 
L 3713 1625 
L 3713 1100 
L 3047 1100 
L 3047 0 
L 2419 0 
L 2419 1100 
L 313 1100 
L 313 1709 
L 2253 4666 
z
" transform="scale(0.015625)"/>
       </defs>
       <use xlink:href="#DejaVuSans-34"/>
      </g>
     </g>
    </g>
    <g id="xtick_4">
     <g id="line2d_4">
      <g>
       <use xlink:href="#m05aa315b2a" x="364.346452" y="390.04" style="stroke: #000000; stroke-width: 0.8"/>
      </g>
     </g>
     <g id="text_4">
      <!-- 6 -->
      <g transform="translate(361.165202 404.638438) scale(0.1 -0.1)">
       <defs>
        <path id="DejaVuSans-36" d="M 2113 2584 
Q 1688 2584 1439 2293 
Q 1191 2003 1191 1497 
Q 1191 994 1439 701 
Q 1688 409 2113 409 
Q 2538 409 2786 701 
Q 3034 994 3034 1497 
Q 3034 2003 2786 2293 
Q 2538 2584 2113 2584 
z
M 3366 4563 
L 3366 3988 
Q 3128 4100 2886 4159 
Q 2644 4219 2406 4219 
Q 1781 4219 1451 3797 
Q 1122 3375 1075 2522 
Q 1259 2794 1537 2939 
Q 1816 3084 2150 3084 
Q 2853 3084 3261 2657 
Q 3669 2231 3669 1497 
Q 3669 778 3244 343 
Q 2819 -91 2113 -91 
Q 1303 -91 875 529 
Q 447 1150 447 2328 
Q 447 3434 972 4092 
Q 1497 4750 2381 4750 
Q 2619 4750 2861 4703 
Q 3103 4656 3366 4563 
z
" transform="scale(0.015625)"/>
       </defs>
       <use xlink:href="#DejaVuSans-36"/>
      </g>
     </g>
    </g>
    <g id="xtick_5">
     <g id="line2d_5">
      <g>
       <use xlink:href="#m05aa315b2a" x="460.209815" y="390.04" style="stroke: #000000; stroke-width: 0.8"/>
      </g>
     </g>
     <g id="text_5">
      <!-- 8 -->
      <g transform="translate(457.028565 404.638438) scale(0.1 -0.1)">
       <defs>
        <path id="DejaVuSans-38" d="M 2034 2216 
Q 1584 2216 1326 1975 
Q 1069 1734 1069 1313 
Q 1069 891 1326 650 
Q 1584 409 2034 409 
Q 2484 409 2743 651 
Q 3003 894 3003 1313 
Q 3003 1734 2745 1975 
Q 2488 2216 2034 2216 
z
M 1403 2484 
Q 997 2584 770 2862 
Q 544 3141 544 3541 
Q 544 4100 942 4425 
Q 1341 4750 2034 4750 
Q 2731 4750 3128 4425 
Q 3525 4100 3525 3541 
Q 3525 3141 3298 2862 
Q 3072 2584 2669 2484 
Q 3125 2378 3379 2068 
Q 3634 1759 3634 1313 
Q 3634 634 3220 271 
Q 2806 -91 2034 -91 
Q 1263 -91 848 271 
Q 434 634 434 1313 
Q 434 1759 690 2068 
Q 947 2378 1403 2484 
z
M 1172 3481 
Q 1172 3119 1398 2916 
Q 1625 2713 2034 2713 
Q 2441 2713 2670 2916 
Q 2900 3119 2900 3481 
Q 2900 3844 2670 4047 
Q 2441 4250 2034 4250 
Q 1625 4250 1398 4047 
Q 1172 3844 1172 3481 
z
" transform="scale(0.015625)"/>
       </defs>
       <use xlink:href="#DejaVuSans-38"/>
      </g>
     </g>
    </g>
    <g id="xtick_6">
     <g id="line2d_6">
      <g>
       <use xlink:href="#m05aa315b2a" x="556.073178" y="390.04" style="stroke: #000000; stroke-width: 0.8"/>
      </g>
     </g>
     <g id="text_6">
      <!-- 10 -->
      <g transform="translate(549.710678 404.638438) scale(0.1 -0.1)">
       <defs>
        <path id="DejaVuSans-31" d="M 794 531 
L 1825 531 
L 1825 4091 
L 703 3866 
L 703 4441 
L 1819 4666 
L 2450 4666 
L 2450 531 
L 3481 531 
L 3481 0 
L 794 0 
L 794 531 
z
" transform="scale(0.015625)"/>
       </defs>
       <use xlink:href="#DejaVuSans-31"/>
       <use xlink:href="#DejaVuSans-30" transform="translate(63.623047 0)"/>
      </g>
     </g>
    </g>
    <g id="xtick_7">
     <g id="line2d_7">
      <g>
       <use xlink:href="#m05aa315b2a" x="651.936541" y="390.04" style="stroke: #000000; stroke-width: 0.8"/>
      </g>
     </g>
     <g id="text_7">
      <!-- 12 -->
      <g transform="translate(645.574041 404.638438) scale(0.1 -0.1)">
       <use xlink:href="#DejaVuSans-31"/>
       <use xlink:href="#DejaVuSans-32" transform="translate(63.623047 0)"/>
      </g>
     </g>
    </g>
    <g id="text_8">
     <!-- Time -->
     <g transform="translate(365.686406 418.316562) scale(0.1 -0.1)">
      <defs>
       <path id="DejaVuSans-54" d="M -19 4666 
L 3928 4666 
L 3928 4134 
L 2272 4134 
L 2272 0 
L 1638 0 
L 1638 4134 
L -19 4134 
L -19 4666 
z
" transform="scale(0.015625)"/>
       <path id="DejaVuSans-69" d="M 603 3500 
L 1178 3500 
L 1178 0 
L 603 0 
L 603 3500 
z
M 603 4863 
L 1178 4863 
L 1178 4134 
L 603 4134 
L 603 4863 
z
" transform="scale(0.015625)"/>
       <path id="DejaVuSans-6d" d="M 3328 2828 
Q 3544 3216 3844 3400 
Q 4144 3584 4550 3584 
Q 5097 3584 5394 3201 
Q 5691 2819 5691 2113 
L 5691 0 
L 5113 0 
L 5113 2094 
Q 5113 2597 4934 2840 
Q 4756 3084 4391 3084 
Q 3944 3084 3684 2787 
Q 3425 2491 3425 1978 
L 3425 0 
L 2847 0 
L 2847 2094 
Q 2847 2600 2669 2842 
Q 2491 3084 2119 3084 
Q 1678 3084 1418 2786 
Q 1159 2488 1159 1978 
L 1159 0 
L 581 0 
L 581 3500 
L 1159 3500 
L 1159 2956 
Q 1356 3278 1631 3431 
Q 1906 3584 2284 3584 
Q 2666 3584 2933 3390 
Q 3200 3197 3328 2828 
z
" transform="scale(0.015625)"/>
       <path id="DejaVuSans-65" d="M 3597 1894 
L 3597 1613 
L 953 1613 
Q 991 1019 1311 708 
Q 1631 397 2203 397 
Q 2534 397 2845 478 
Q 3156 559 3463 722 
L 3463 178 
Q 3153 47 2828 -22 
Q 2503 -91 2169 -91 
Q 1331 -91 842 396 
Q 353 884 353 1716 
Q 353 2575 817 3079 
Q 1281 3584 2069 3584 
Q 2775 3584 3186 3129 
Q 3597 2675 3597 1894 
z
M 3022 2063 
Q 3016 2534 2758 2815 
Q 2500 3097 2075 3097 
Q 1594 3097 1305 2825 
Q 1016 2553 972 2059 
L 3022 2063 
z
" transform="scale(0.015625)"/>
      </defs>
      <use xlink:href="#DejaVuSans-54"/>
      <use xlink:href="#DejaVuSans-69" transform="translate(57.958984 0)"/>
      <use xlink:href="#DejaVuSans-6d" transform="translate(85.742188 0)"/>
      <use xlink:href="#DejaVuSans-65" transform="translate(183.154297 0)"/>
     </g>
    </g>
   </g>
   <g id="matplotlib.axis_2">
    <g id="ytick_1">
     <g id="line2d_8">
      <defs>
       <path id="m24f244b8b6" d="M 0 0 
L -3.5 0 
" style="stroke: #000000; stroke-width: 0.8"/>
      </defs>
      <g>
       <use xlink:href="#m24f244b8b6" x="46.64" y="337.510384" style="stroke: #000000; stroke-width: 0.8"/>
      </g>
     </g>
     <g id="text_9">
      <!-- −4 -->
      <g transform="translate(24.897813 341.309602) scale(0.1 -0.1)">
       <defs>
        <path id="DejaVuSans-2212" d="M 678 2272 
L 4684 2272 
L 4684 1741 
L 678 1741 
L 678 2272 
z
" transform="scale(0.015625)"/>
       </defs>
       <use xlink:href="#DejaVuSans-2212"/>
       <use xlink:href="#DejaVuSans-34" transform="translate(83.789062 0)"/>
      </g>
     </g>
    </g>
    <g id="ytick_2">
     <g id="line2d_9">
      <g>
       <use xlink:href="#m24f244b8b6" x="46.64" y="268.965192" style="stroke: #000000; stroke-width: 0.8"/>
      </g>
     </g>
     <g id="text_10">
      <!-- −2 -->
      <g transform="translate(24.897813 272.764411) scale(0.1 -0.1)">
       <use xlink:href="#DejaVuSans-2212"/>
       <use xlink:href="#DejaVuSans-32" transform="translate(83.789062 0)"/>
      </g>
     </g>
    </g>
    <g id="ytick_3">
     <g id="line2d_10">
      <g>
       <use xlink:href="#m24f244b8b6" x="46.64" y="200.42" style="stroke: #000000; stroke-width: 0.8"/>
      </g>
     </g>
     <g id="text_11">
      <!-- 0 -->
      <g transform="translate(33.2775 204.219219) scale(0.1 -0.1)">
       <use xlink:href="#DejaVuSans-30"/>
      </g>
     </g>
    </g>
    <g id="ytick_4">
     <g id="line2d_11">
      <g>
       <use xlink:href="#m24f244b8b6" x="46.64" y="131.874808" style="stroke: #000000; stroke-width: 0.8"/>
      </g>
     </g>
     <g id="text_12">
      <!-- 2 -->
      <g transform="translate(33.2775 135.674027) scale(0.1 -0.1)">
       <use xlink:href="#DejaVuSans-32"/>
      </g>
     </g>
    </g>
    <g id="ytick_5">
     <g id="line2d_12">
      <g>
       <use xlink:href="#m24f244b8b6" x="46.64" y="63.329616" style="stroke: #000000; stroke-width: 0.8"/>
      </g>
     </g>
     <g id="text_13">
      <!-- 4 -->
      <g transform="translate(33.2775 67.128835) scale(0.1 -0.1)">
       <use xlink:href="#DejaVuSans-34"/>
      </g>
     </g>
    </g>
    <g id="text_14">
     <!-- Amplitude -->
     <g transform="translate(18.818125 226.042656) rotate(-90) scale(0.1 -0.1)">
      <defs>
       <path id="DejaVuSans-41" d="M 2188 4044 
L 1331 1722 
L 3047 1722 
L 2188 4044 
z
M 1831 4666 
L 2547 4666 
L 4325 0 
L 3669 0 
L 3244 1197 
L 1141 1197 
L 716 0 
L 50 0 
L 1831 4666 
z
" transform="scale(0.015625)"/>
       <path id="DejaVuSans-70" d="M 1159 525 
L 1159 -1331 
L 581 -1331 
L 581 3500 
L 1159 3500 
L 1159 2969 
Q 1341 3281 1617 3432 
Q 1894 3584 2278 3584 
Q 2916 3584 3314 3078 
Q 3713 2572 3713 1747 
Q 3713 922 3314 415 
Q 2916 -91 2278 -91 
Q 1894 -91 1617 61 
Q 1341 213 1159 525 
z
M 3116 1747 
Q 3116 2381 2855 2742 
Q 2594 3103 2138 3103 
Q 1681 3103 1420 2742 
Q 1159 2381 1159 1747 
Q 1159 1113 1420 752 
Q 1681 391 2138 391 
Q 2594 391 2855 752 
Q 3116 1113 3116 1747 
z
" transform="scale(0.015625)"/>
       <path id="DejaVuSans-6c" d="M 603 4863 
L 1178 4863 
L 1178 0 
L 603 0 
L 603 4863 
z
" transform="scale(0.015625)"/>
       <path id="DejaVuSans-74" d="M 1172 4494 
L 1172 3500 
L 2356 3500 
L 2356 3053 
L 1172 3053 
L 1172 1153 
Q 1172 725 1289 603 
Q 1406 481 1766 481 
L 2356 481 
L 2356 0 
L 1766 0 
Q 1100 0 847 248 
Q 594 497 594 1153 
L 594 3053 
L 172 3053 
L 172 3500 
L 594 3500 
L 594 4494 
L 1172 4494 
z
" transform="scale(0.015625)"/>
       <path id="DejaVuSans-75" d="M 544 1381 
L 544 3500 
L 1119 3500 
L 1119 1403 
Q 1119 906 1312 657 
Q 1506 409 1894 409 
Q 2359 409 2629 706 
Q 2900 1003 2900 1516 
L 2900 3500 
L 3475 3500 
L 3475 0 
L 2900 0 
L 2900 538 
Q 2691 219 2414 64 
Q 2138 -91 1772 -91 
Q 1169 -91 856 284 
Q 544 659 544 1381 
z
M 1991 3584 
L 1991 3584 
z
" transform="scale(0.015625)"/>
       <path id="DejaVuSans-64" d="M 2906 2969 
L 2906 4863 
L 3481 4863 
L 3481 0 
L 2906 0 
L 2906 525 
Q 2725 213 2448 61 
Q 2172 -91 1784 -91 
Q 1150 -91 751 415 
Q 353 922 353 1747 
Q 353 2572 751 3078 
Q 1150 3584 1784 3584 
Q 2172 3584 2448 3432 
Q 2725 3281 2906 2969 
z
M 947 1747 
Q 947 1113 1208 752 
Q 1469 391 1925 391 
Q 2381 391 2643 752 
Q 2906 1113 2906 1747 
Q 2906 2381 2643 2742 
Q 2381 3103 1925 3103 
Q 1469 3103 1208 2742 
Q 947 2381 947 1747 
z
" transform="scale(0.015625)"/>
      </defs>
      <use xlink:href="#DejaVuSans-41"/>
      <use xlink:href="#DejaVuSans-6d" transform="translate(68.408203 0)"/>
      <use xlink:href="#DejaVuSans-70" transform="translate(165.820312 0)"/>
      <use xlink:href="#DejaVuSans-6c" transform="translate(229.296875 0)"/>
      <use xlink:href="#DejaVuSans-69" transform="translate(257.080078 0)"/>
      <use xlink:href="#DejaVuSans-74" transform="translate(284.863281 0)"/>
      <use xlink:href="#DejaVuSans-75" transform="translate(324.072266 0)"/>
      <use xlink:href="#DejaVuSans-64" transform="translate(387.451172 0)"/>
      <use xlink:href="#DejaVuSans-65" transform="translate(450.927734 0)"/>
     </g>
    </g>
   </g>
   <g id="line2d_13">
    <path d="M 76.756364 200.42 
L 88.212037 177.471859 
L 94.84427 164.700902 
L 100.270642 154.749166 
L 105.094083 146.390255 
L 109.314595 139.521899 
L 112.932176 134.008373 
L 116.549757 128.872968 
L 120.167338 124.14492 
L 123.181989 120.535552 
L 126.19664 117.242082 
L 129.211291 114.277534 
L 132.225942 111.653633 
L 135.240593 109.380753 
L 137.652314 107.821272 
L 140.064035 106.496172 
L 142.475756 105.408807 
L 144.887477 104.561929 
L 147.299197 103.957682 
L 149.710918 103.597595 
L 152.122639 103.48258 
L 154.53436 103.612927 
L 156.946081 103.988307 
L 159.357801 104.60777 
L 161.769522 105.469748 
L 164.181243 106.572058 
L 166.592964 107.911911 
L 169.004685 109.485916 
L 171.416405 111.290088 
L 174.431057 113.861964 
L 177.445708 116.776129 
L 180.460359 120.02106 
L 183.47501 123.583924 
L 186.489661 127.450631 
L 190.107242 132.470145 
L 193.724823 137.876536 
L 197.945334 144.631781 
L 202.165846 151.819289 
L 206.989287 160.491306 
L 212.415659 170.725703 
L 219.047892 183.7371 
L 231.106496 208.033229 
L 240.150449 226.024197 
L 246.179751 237.551592 
L 251.606122 247.429582 
L 256.429564 255.708519 
L 260.650076 262.496418 
L 264.267657 267.933689 
L 267.885238 272.986565 
L 271.502819 277.626278 
L 274.51747 281.157962 
L 277.532121 284.370372 
L 280.546772 287.250805 
L 283.561423 289.787871 
L 285.973144 291.56351 
L 288.384865 293.108451 
L 290.796586 294.418785 
L 293.208306 295.491193 
L 295.620027 296.322963 
L 298.031748 296.911989 
L 300.443469 297.256779 
L 302.85519 297.356461 
L 305.266911 297.210783 
L 307.678631 296.820114 
L 310.090352 296.185442 
L 312.502073 295.308373 
L 314.913794 294.191128 
L 317.325515 292.836535 
L 319.737235 291.248022 
L 322.148956 289.429611 
L 325.163607 286.840367 
L 328.178258 283.909378 
L 331.192909 280.648236 
L 334.20756 277.069835 
L 337.825142 272.376982 
L 341.442723 267.274437 
L 345.060304 261.791251 
L 349.280815 254.954875 
L 353.501327 247.695948 
L 358.324768 238.954907 
L 363.75114 228.659744 
L 370.986303 214.393927 
L 393.89765 168.701742 
L 399.324022 158.556665 
L 404.147464 149.98488 
L 408.367975 142.90034 
L 412.588487 136.261478 
L 416.206068 130.964842 
L 419.823649 126.063653 
L 423.44123 121.585819 
L 426.455881 118.196154 
L 429.470532 115.131639 
L 432.485183 112.404392 
L 435.499834 110.025198 
L 437.911555 108.37881 
L 440.323276 106.965392 
L 442.734997 105.788522 
L 445.146718 104.851177 
L 447.558438 104.155731 
L 449.970159 103.703944 
L 452.38188 103.496959 
L 454.793601 103.535301 
L 457.205322 103.818872 
L 459.617042 104.346954 
L 462.028763 105.118211 
L 464.440484 106.130691 
L 466.852205 107.381831 
L 469.263926 108.868464 
L 471.675647 110.586828 
L 474.087367 112.532572 
L 477.102018 115.27695 
L 480.116669 118.358021 
L 483.13132 121.763602 
L 486.145971 125.480225 
L 489.763553 130.329972 
L 493.381134 135.578783 
L 496.998715 141.196771 
L 501.219226 148.17491 
L 506.042668 156.642309 
L 511.46904 166.693151 
L 517.498342 178.361401 
L 525.939365 195.240135 
L 540.40969 224.255641 
L 546.438992 235.855529 
L 551.865364 245.821718 
L 556.688805 254.196377 
L 560.909317 261.080621 
L 564.526898 266.609235 
L 568.144479 271.760995 
L 571.76206 276.50657 
L 574.776711 280.131369 
L 577.791362 283.440954 
L 580.806013 286.422237 
L 583.820664 289.063428 
L 586.835315 291.354084 
L 589.247036 292.928089 
L 591.658757 294.267942 
L 594.070478 295.370252 
L 596.482199 296.23223 
L 598.893919 296.851693 
L 601.30564 297.227073 
L 603.717361 297.35742 
L 606.129082 297.242405 
L 608.540803 296.882318 
L 610.952523 296.278071 
L 613.364244 295.431193 
L 615.775965 294.343828 
L 618.187686 293.018728 
L 620.599407 291.459247 
L 623.011127 289.669333 
L 626.025779 287.114849 
L 629.04043 284.217536 
L 632.055081 280.988849 
L 635.069732 277.441558 
L 638.084383 273.589689 
L 641.701964 268.586932 
L 645.319545 263.196061 
L 649.540056 256.457242 
L 653.760568 249.284232 
L 658.584009 240.626278 
L 664.010381 230.404338 
L 670.642614 217.403112 
L 679.083636 200.42 
L 679.083636 200.42 
" clip-path="url(#p9bf4bde27c)" style="fill: none; stroke: #4682b4; stroke-width: 1.5; stroke-linecap: square"/>
   </g>
   <g id="line2d_14">
    <path d="M 46.64 103.48246 
L 709.2 103.48246 
" clip-path="url(#p9bf4bde27c)" style="fill: none; stroke-dasharray: 5.55,2.4; stroke-dashoffset: 0; stroke: #4682b4; stroke-opacity: 0.7; stroke-width: 1.5"/>
   </g>
   <g id="line2d_15">
    <path d="M 46.64 131.874808 
L 709.2 131.874808 
" clip-path="url(#p9bf4bde27c)" style="fill: none; stroke-dasharray: 1.5,2.475; stroke-dashoffset: 0; stroke: #4682b4; stroke-opacity: 0.7; stroke-width: 1.5"/>
   </g>
   <g id="line2d_16">
    <path d="M 76.756364 200.42 
L 88.212037 159.611793 
L 94.24134 138.922247 
L 99.667711 121.123518 
L 103.888223 107.970716 
L 108.108734 95.534236 
L 111.726315 85.517738 
L 115.343897 76.155445 
L 118.358548 68.891849 
L 121.373199 62.148375 
L 124.38785 55.951688 
L 127.402501 50.326293 
L 129.814221 46.252335 
L 132.225942 42.568597 
L 134.637663 39.284404 
L 137.049384 36.408069 
L 139.461105 33.946872 
L 141.269895 32.377196 
L 143.078686 31.046796 
L 144.887477 29.957567 
L 146.696267 29.111059 
L 148.505058 28.508479 
L 150.313848 28.150683 
L 152.122639 28.038182 
L 153.93143 28.171135 
L 155.74022 28.549354 
L 157.549011 29.172299 
L 159.357801 30.039084 
L 161.166592 31.148475 
L 162.975383 32.498892 
L 164.784173 34.088411 
L 166.592964 35.91477 
L 169.004685 38.71379 
L 171.416405 41.922112 
L 173.828126 45.531615 
L 176.239847 49.533163 
L 178.651568 53.916628 
L 181.666219 59.916036 
L 184.68087 66.47106 
L 187.695521 73.555777 
L 191.313102 82.717046 
L 194.930683 92.548466 
L 198.548265 102.99406 
L 202.768776 115.877314 
L 207.592218 131.397086 
L 213.018589 149.683511 
L 219.650822 172.891464 
L 232.915286 220.432332 
L 240.753379 248.039137 
L 246.782681 268.44807 
L 251.606122 284.016172 
L 255.826634 296.949591 
L 260.047145 309.135073 
L 263.664727 318.912734 
L 267.282308 328.015748 
L 270.296959 335.048723 
L 273.31161 341.549316 
L 276.326261 347.491821 
L 278.737982 351.828133 
L 281.149702 355.78121 
L 283.561423 359.341044 
L 285.973144 362.498626 
L 288.384865 365.245964 
L 290.796586 367.576103 
L 292.605376 369.046333 
L 294.414167 370.276455 
L 296.222958 371.264719 
L 298.031748 372.009717 
L 299.840539 372.510388 
L 301.649329 372.76602 
L 303.45812 372.776248 
L 305.266911 372.541057 
L 307.075701 372.060784 
L 308.884492 371.336111 
L 310.693282 370.36807 
L 312.502073 369.15804 
L 314.310864 367.707744 
L 316.119654 366.019247 
L 318.531375 363.401586 
L 320.943096 360.371395 
L 323.354817 356.936344 
L 325.766537 353.105127 
L 328.178258 348.887442 
L 331.192909 343.08822 
L 334.20756 336.724823 
L 337.222211 329.822417 
L 340.236862 322.408296 
L 343.854444 312.877303 
L 347.472025 302.706026 
L 351.692536 290.107735 
L 355.913048 276.814521 
L 360.736489 260.903692 
L 366.765791 240.174032 
L 374.603884 212.336605 
L 390.280069 156.459121 
L 396.309371 135.89482 
L 401.132813 120.16242 
L 405.353324 107.057466 
L 409.573836 94.675909 
L 413.191417 84.711799 
L 416.808998 75.406483 
L 419.823649 68.19364 
L 422.8383 61.503679 
L 425.852951 55.363055 
L 428.867602 49.796051 
L 431.279323 45.770326 
L 433.691044 42.136042 
L 436.102765 38.902398 
L 438.514485 36.077578 
L 440.926206 33.668733 
L 442.734997 32.138791 
L 444.543787 30.848464 
L 446.352578 29.79959 
L 448.161369 28.993662 
L 449.970159 28.431829 
L 451.77895 28.11489 
L 453.58774 28.043296 
L 455.396531 28.21715 
L 457.205322 28.636203 
L 459.014112 29.299859 
L 460.822903 30.207174 
L 462.631694 31.356854 
L 464.440484 32.747264 
L 466.249275 34.376423 
L 468.058065 36.242012 
L 470.469786 39.092603 
L 472.881507 42.351538 
L 475.293228 46.010567 
L 477.704949 50.060429 
L 480.116669 54.490872 
L 483.13132 60.546947 
L 486.145971 67.156142 
L 489.160622 74.292321 
L 492.778204 83.511483 
L 496.395785 93.396272 
L 500.013366 103.890409 
L 504.233878 116.823828 
L 509.057319 132.39193 
L 514.483691 150.720676 
L 521.115923 173.96228 
L 545.233131 259.378127 
L 550.659503 277.300098 
L 555.482945 292.411285 
L 559.703456 304.875043 
L 563.321037 314.917586 
L 566.938619 324.308229 
L 569.95327 331.597093 
L 572.967921 338.367225 
L 575.982572 344.591851 
L 578.997223 350.246358 
L 581.408943 354.344373 
L 583.820664 358.052783 
L 586.232385 361.362202 
L 588.644106 364.264252 
L 591.055827 366.751589 
L 592.864617 368.341108 
L 594.673408 369.691525 
L 596.482199 370.800916 
L 598.290989 371.667701 
L 600.09978 372.290646 
L 601.90857 372.668865 
L 603.717361 372.801818 
L 605.526152 372.689317 
L 607.334942 372.331521 
L 609.143733 371.728941 
L 610.952523 370.882433 
L 612.761314 369.793204 
L 614.570105 368.462804 
L 616.378895 366.893128 
L 618.187686 365.086411 
L 620.599407 362.313219 
L 623.011127 359.130251 
L 625.422848 355.545564 
L 627.834569 351.568232 
L 630.24629 347.208322 
L 633.260941 341.237336 
L 636.275592 334.709496 
L 639.290243 327.650615 
L 642.304894 320.088607 
L 645.922475 310.392308 
L 649.540056 300.069874 
L 653.760568 287.314258 
L 658.584009 271.917995 
L 664.010381 253.740531 
L 670.642614 230.620719 
L 679.083636 200.42 
L 679.083636 200.42 
" clip-path="url(#p9bf4bde27c)" style="fill: none; stroke: #ff8c00; stroke-width: 1.5; stroke-linecap: square"/>
   </g>
   <g id="line2d_17">
    <path d="M 46.64 28.037969 
L 709.2 28.037969 
" clip-path="url(#p9bf4bde27c)" style="fill: none; stroke-dasharray: 5.55,2.4; stroke-dashoffset: 0; stroke: #ff8c00; stroke-opacity: 0.7; stroke-width: 1.5"/>
   </g>
   <g id="line2d_18">
    <path d="M 46.64 78.527497 
L 709.2 78.527497 
" clip-path="url(#p9bf4bde27c)" style="fill: none; stroke-dasharray: 1.5,2.475; stroke-dashoffset: 0; stroke: #ff8c00; stroke-opacity: 0.7; stroke-width: 1.5"/>
   </g>
   <g id="line2d_19">
    <path d="M 46.64 46.193318 
L 709.2 46.193318 
" clip-path="url(#p9bf4bde27c)" style="fill: none; stroke-dasharray: 1.5,2.475; stroke-dashoffset: 0; stroke: #ff0000; stroke-opacity: 0.8; stroke-width: 1.5"/>
   </g>
   <g id="line2d_20">
    <path d="M 46.64 200.42 
L 709.2 200.42 
" clip-path="url(#p9bf4bde27c)" style="fill: none; stroke: #000000; stroke-linecap: square"/>
   </g>
   <g id="patch_3">
    <path d="M 46.64 390.04 
L 46.64 10.8 
" style="fill: none; stroke: #000000; stroke-width: 0.8; stroke-linejoin: miter; stroke-linecap: square"/>
   </g>
   <g id="patch_4">
    <path d="M 709.2 390.04 
L 709.2 10.8 
" style="fill: none; stroke: #000000; stroke-width: 0.8; stroke-linejoin: miter; stroke-linecap: square"/>
   </g>
   <g id="patch_5">
    <path d="M 46.64 390.04 
L 709.2 390.04 
" style="fill: none; stroke: #000000; stroke-width: 0.8; stroke-linejoin: miter; stroke-linecap: square"/>
   </g>
   <g id="patch_6">
    <path d="M 46.64 10.8 
L 709.2 10.8 
" style="fill: none; stroke: #000000; stroke-width: 0.8; stroke-linejoin: miter; stroke-linecap: square"/>
   </g>
   <g id="legend_1">
    <g id="patch_7">
     <path d="M 570.315625 121.546875 
L 702.2 121.546875 
Q 704.2 121.546875 704.2 119.546875 
L 704.2 17.8 
Q 704.2 15.8 702.2 15.8 
L 570.315625 15.8 
Q 568.315625 15.8 568.315625 17.8 
L 568.315625 119.546875 
Q 568.315625 121.546875 570.315625 121.546875 
z
" style="fill: #ffffff; opacity: 0.8; stroke: #cccccc; stroke-linejoin: miter"/>
    </g>
    <g id="line2d_21">
     <path d="M 572.315625 23.898438 
L 582.315625 23.898438 
L 592.315625 23.898438 
" style="fill: none; stroke: #4682b4; stroke-width: 1.5; stroke-linecap: square"/>
    </g>
    <g id="text_15">
     <!-- A (original) -->
     <g transform="translate(600.315625 27.398438) scale(0.1 -0.1)">
      <defs>
       <path id="DejaVuSans-20" transform="scale(0.015625)"/>
       <path id="DejaVuSans-28" d="M 1984 4856 
Q 1566 4138 1362 3434 
Q 1159 2731 1159 2009 
Q 1159 1288 1364 580 
Q 1569 -128 1984 -844 
L 1484 -844 
Q 1016 -109 783 600 
Q 550 1309 550 2009 
Q 550 2706 781 3412 
Q 1013 4119 1484 4856 
L 1984 4856 
z
" transform="scale(0.015625)"/>
       <path id="DejaVuSans-6f" d="M 1959 3097 
Q 1497 3097 1228 2736 
Q 959 2375 959 1747 
Q 959 1119 1226 758 
Q 1494 397 1959 397 
Q 2419 397 2687 759 
Q 2956 1122 2956 1747 
Q 2956 2369 2687 2733 
Q 2419 3097 1959 3097 
z
M 1959 3584 
Q 2709 3584 3137 3096 
Q 3566 2609 3566 1747 
Q 3566 888 3137 398 
Q 2709 -91 1959 -91 
Q 1206 -91 779 398 
Q 353 888 353 1747 
Q 353 2609 779 3096 
Q 1206 3584 1959 3584 
z
" transform="scale(0.015625)"/>
       <path id="DejaVuSans-72" d="M 2631 2963 
Q 2534 3019 2420 3045 
Q 2306 3072 2169 3072 
Q 1681 3072 1420 2755 
Q 1159 2438 1159 1844 
L 1159 0 
L 581 0 
L 581 3500 
L 1159 3500 
L 1159 2956 
Q 1341 3275 1631 3429 
Q 1922 3584 2338 3584 
Q 2397 3584 2469 3576 
Q 2541 3569 2628 3553 
L 2631 2963 
z
" transform="scale(0.015625)"/>
       <path id="DejaVuSans-67" d="M 2906 1791 
Q 2906 2416 2648 2759 
Q 2391 3103 1925 3103 
Q 1463 3103 1205 2759 
Q 947 2416 947 1791 
Q 947 1169 1205 825 
Q 1463 481 1925 481 
Q 2391 481 2648 825 
Q 2906 1169 2906 1791 
z
M 3481 434 
Q 3481 -459 3084 -895 
Q 2688 -1331 1869 -1331 
Q 1566 -1331 1297 -1286 
Q 1028 -1241 775 -1147 
L 775 -588 
Q 1028 -725 1275 -790 
Q 1522 -856 1778 -856 
Q 2344 -856 2625 -561 
Q 2906 -266 2906 331 
L 2906 616 
Q 2728 306 2450 153 
Q 2172 0 1784 0 
Q 1141 0 747 490 
Q 353 981 353 1791 
Q 353 2603 747 3093 
Q 1141 3584 1784 3584 
Q 2172 3584 2450 3431 
Q 2728 3278 2906 2969 
L 2906 3500 
L 3481 3500 
L 3481 434 
z
" transform="scale(0.015625)"/>
       <path id="DejaVuSans-6e" d="M 3513 2113 
L 3513 0 
L 2938 0 
L 2938 2094 
Q 2938 2591 2744 2837 
Q 2550 3084 2163 3084 
Q 1697 3084 1428 2787 
Q 1159 2491 1159 1978 
L 1159 0 
L 581 0 
L 581 3500 
L 1159 3500 
L 1159 2956 
Q 1366 3272 1645 3428 
Q 1925 3584 2291 3584 
Q 2894 3584 3203 3211 
Q 3513 2838 3513 2113 
z
" transform="scale(0.015625)"/>
       <path id="DejaVuSans-61" d="M 2194 1759 
Q 1497 1759 1228 1600 
Q 959 1441 959 1056 
Q 959 750 1161 570 
Q 1363 391 1709 391 
Q 2188 391 2477 730 
Q 2766 1069 2766 1631 
L 2766 1759 
L 2194 1759 
z
M 3341 1997 
L 3341 0 
L 2766 0 
L 2766 531 
Q 2569 213 2275 61 
Q 1981 -91 1556 -91 
Q 1019 -91 701 211 
Q 384 513 384 1019 
Q 384 1609 779 1909 
Q 1175 2209 1959 2209 
L 2766 2209 
L 2766 2266 
Q 2766 2663 2505 2880 
Q 2244 3097 1772 3097 
Q 1472 3097 1187 3025 
Q 903 2953 641 2809 
L 641 3341 
Q 956 3463 1253 3523 
Q 1550 3584 1831 3584 
Q 2591 3584 2966 3190 
Q 3341 2797 3341 1997 
z
" transform="scale(0.015625)"/>
       <path id="DejaVuSans-29" d="M 513 4856 
L 1013 4856 
Q 1481 4119 1714 3412 
Q 1947 2706 1947 2009 
Q 1947 1309 1714 600 
Q 1481 -109 1013 -844 
L 513 -844 
Q 928 -128 1133 580 
Q 1338 1288 1338 2009 
Q 1338 2731 1133 3434 
Q 928 4138 513 4856 
z
" transform="scale(0.015625)"/>
      </defs>
      <use xlink:href="#DejaVuSans-41"/>
      <use xlink:href="#DejaVuSans-20" transform="translate(68.408203 0)"/>
      <use xlink:href="#DejaVuSans-28" transform="translate(100.195312 0)"/>
      <use xlink:href="#DejaVuSans-6f" transform="translate(139.208984 0)"/>
      <use xlink:href="#DejaVuSans-72" transform="translate(200.390625 0)"/>
      <use xlink:href="#DejaVuSans-69" transform="translate(241.503906 0)"/>
      <use xlink:href="#DejaVuSans-67" transform="translate(269.287109 0)"/>
      <use xlink:href="#DejaVuSans-69" transform="translate(332.763672 0)"/>
      <use xlink:href="#DejaVuSans-6e" transform="translate(360.546875 0)"/>
      <use xlink:href="#DejaVuSans-61" transform="translate(423.925781 0)"/>
      <use xlink:href="#DejaVuSans-6c" transform="translate(485.205078 0)"/>
      <use xlink:href="#DejaVuSans-29" transform="translate(512.988281 0)"/>
     </g>
    </g>
    <g id="line2d_22">
     <path d="M 572.315625 38.576563 
L 582.315625 38.576563 
L 592.315625 38.576563 
" style="fill: none; stroke-dasharray: 5.55,2.4; stroke-dashoffset: 0; stroke: #4682b4; stroke-opacity: 0.7; stroke-width: 1.5"/>
    </g>
    <g id="text_16">
     <!-- Peak A = 2.83 -->
     <g transform="translate(600.315625 42.076563) scale(0.1 -0.1)">
      <defs>
       <path id="DejaVuSans-50" d="M 1259 4147 
L 1259 2394 
L 2053 2394 
Q 2494 2394 2734 2622 
Q 2975 2850 2975 3272 
Q 2975 3691 2734 3919 
Q 2494 4147 2053 4147 
L 1259 4147 
z
M 628 4666 
L 2053 4666 
Q 2838 4666 3239 4311 
Q 3641 3956 3641 3272 
Q 3641 2581 3239 2228 
Q 2838 1875 2053 1875 
L 1259 1875 
L 1259 0 
L 628 0 
L 628 4666 
z
" transform="scale(0.015625)"/>
       <path id="DejaVuSans-6b" d="M 581 4863 
L 1159 4863 
L 1159 1991 
L 2875 3500 
L 3609 3500 
L 1753 1863 
L 3688 0 
L 2938 0 
L 1159 1709 
L 1159 0 
L 581 0 
L 581 4863 
z
" transform="scale(0.015625)"/>
       <path id="DejaVuSans-3d" d="M 678 2906 
L 4684 2906 
L 4684 2381 
L 678 2381 
L 678 2906 
z
M 678 1631 
L 4684 1631 
L 4684 1100 
L 678 1100 
L 678 1631 
z
" transform="scale(0.015625)"/>
       <path id="DejaVuSans-2e" d="M 684 794 
L 1344 794 
L 1344 0 
L 684 0 
L 684 794 
z
" transform="scale(0.015625)"/>
       <path id="DejaVuSans-33" d="M 2597 2516 
Q 3050 2419 3304 2112 
Q 3559 1806 3559 1356 
Q 3559 666 3084 287 
Q 2609 -91 1734 -91 
Q 1441 -91 1130 -33 
Q 819 25 488 141 
L 488 750 
Q 750 597 1062 519 
Q 1375 441 1716 441 
Q 2309 441 2620 675 
Q 2931 909 2931 1356 
Q 2931 1769 2642 2001 
Q 2353 2234 1838 2234 
L 1294 2234 
L 1294 2753 
L 1863 2753 
Q 2328 2753 2575 2939 
Q 2822 3125 2822 3475 
Q 2822 3834 2567 4026 
Q 2313 4219 1838 4219 
Q 1578 4219 1281 4162 
Q 984 4106 628 3988 
L 628 4550 
Q 988 4650 1302 4700 
Q 1616 4750 1894 4750 
Q 2613 4750 3031 4423 
Q 3450 4097 3450 3541 
Q 3450 3153 3228 2886 
Q 3006 2619 2597 2516 
z
" transform="scale(0.015625)"/>
      </defs>
      <use xlink:href="#DejaVuSans-50"/>
      <use xlink:href="#DejaVuSans-65" transform="translate(56.677734 0)"/>
      <use xlink:href="#DejaVuSans-61" transform="translate(118.201172 0)"/>
      <use xlink:href="#DejaVuSans-6b" transform="translate(179.480469 0)"/>
      <use xlink:href="#DejaVuSans-20" transform="translate(237.390625 0)"/>
      <use xlink:href="#DejaVuSans-41" transform="translate(269.177734 0)"/>
      <use xlink:href="#DejaVuSans-20" transform="translate(337.585938 0)"/>
      <use xlink:href="#DejaVuSans-3d" transform="translate(369.373047 0)"/>
      <use xlink:href="#DejaVuSans-20" transform="translate(453.162109 0)"/>
      <use xlink:href="#DejaVuSans-32" transform="translate(484.949219 0)"/>
      <use xlink:href="#DejaVuSans-2e" transform="translate(548.572266 0)"/>
      <use xlink:href="#DejaVuSans-38" transform="translate(580.359375 0)"/>
      <use xlink:href="#DejaVuSans-33" transform="translate(643.982422 0)"/>
     </g>
    </g>
    <g id="line2d_23">
     <path d="M 572.315625 53.254687 
L 582.315625 53.254687 
L 592.315625 53.254687 
" style="fill: none; stroke-dasharray: 1.5,2.475; stroke-dashoffset: 0; stroke: #4682b4; stroke-opacity: 0.7; stroke-width: 1.5"/>
    </g>
    <g id="text_17">
     <!-- RMS A = 2.00 -->
     <g transform="translate(600.315625 56.754687) scale(0.1 -0.1)">
      <defs>
       <path id="DejaVuSans-52" d="M 2841 2188 
Q 3044 2119 3236 1894 
Q 3428 1669 3622 1275 
L 4263 0 
L 3584 0 
L 2988 1197 
Q 2756 1666 2539 1819 
Q 2322 1972 1947 1972 
L 1259 1972 
L 1259 0 
L 628 0 
L 628 4666 
L 2053 4666 
Q 2853 4666 3247 4331 
Q 3641 3997 3641 3322 
Q 3641 2881 3436 2590 
Q 3231 2300 2841 2188 
z
M 1259 4147 
L 1259 2491 
L 2053 2491 
Q 2509 2491 2742 2702 
Q 2975 2913 2975 3322 
Q 2975 3731 2742 3939 
Q 2509 4147 2053 4147 
L 1259 4147 
z
" transform="scale(0.015625)"/>
       <path id="DejaVuSans-4d" d="M 628 4666 
L 1569 4666 
L 2759 1491 
L 3956 4666 
L 4897 4666 
L 4897 0 
L 4281 0 
L 4281 4097 
L 3078 897 
L 2444 897 
L 1241 4097 
L 1241 0 
L 628 0 
L 628 4666 
z
" transform="scale(0.015625)"/>
       <path id="DejaVuSans-53" d="M 3425 4513 
L 3425 3897 
Q 3066 4069 2747 4153 
Q 2428 4238 2131 4238 
Q 1616 4238 1336 4038 
Q 1056 3838 1056 3469 
Q 1056 3159 1242 3001 
Q 1428 2844 1947 2747 
L 2328 2669 
Q 3034 2534 3370 2195 
Q 3706 1856 3706 1288 
Q 3706 609 3251 259 
Q 2797 -91 1919 -91 
Q 1588 -91 1214 -16 
Q 841 59 441 206 
L 441 856 
Q 825 641 1194 531 
Q 1563 422 1919 422 
Q 2459 422 2753 634 
Q 3047 847 3047 1241 
Q 3047 1584 2836 1778 
Q 2625 1972 2144 2069 
L 1759 2144 
Q 1053 2284 737 2584 
Q 422 2884 422 3419 
Q 422 4038 858 4394 
Q 1294 4750 2059 4750 
Q 2388 4750 2728 4690 
Q 3069 4631 3425 4513 
z
" transform="scale(0.015625)"/>
      </defs>
      <use xlink:href="#DejaVuSans-52"/>
      <use xlink:href="#DejaVuSans-4d" transform="translate(69.482422 0)"/>
      <use xlink:href="#DejaVuSans-53" transform="translate(155.761719 0)"/>
      <use xlink:href="#DejaVuSans-20" transform="translate(219.238281 0)"/>
      <use xlink:href="#DejaVuSans-41" transform="translate(251.025391 0)"/>
      <use xlink:href="#DejaVuSans-20" transform="translate(319.433594 0)"/>
      <use xlink:href="#DejaVuSans-3d" transform="translate(351.220703 0)"/>
      <use xlink:href="#DejaVuSans-20" transform="translate(435.009766 0)"/>
      <use xlink:href="#DejaVuSans-32" transform="translate(466.796875 0)"/>
      <use xlink:href="#DejaVuSans-2e" transform="translate(530.419922 0)"/>
      <use xlink:href="#DejaVuSans-30" transform="translate(562.207031 0)"/>
      <use xlink:href="#DejaVuSans-30" transform="translate(625.830078 0)"/>
     </g>
    </g>
    <g id="line2d_24">
     <path d="M 572.315625 67.932813 
L 582.315625 67.932813 
L 592.315625 67.932813 
" style="fill: none; stroke: #ff8c00; stroke-width: 1.5; stroke-linecap: square"/>
    </g>
    <g id="text_18">
     <!-- B (amplified 5.0 dB) -->
     <g transform="translate(600.315625 71.432813) scale(0.1 -0.1)">
      <defs>
       <path id="DejaVuSans-42" d="M 1259 2228 
L 1259 519 
L 2272 519 
Q 2781 519 3026 730 
Q 3272 941 3272 1375 
Q 3272 1813 3026 2020 
Q 2781 2228 2272 2228 
L 1259 2228 
z
M 1259 4147 
L 1259 2741 
L 2194 2741 
Q 2656 2741 2882 2914 
Q 3109 3088 3109 3444 
Q 3109 3797 2882 3972 
Q 2656 4147 2194 4147 
L 1259 4147 
z
M 628 4666 
L 2241 4666 
Q 2963 4666 3353 4366 
Q 3744 4066 3744 3513 
Q 3744 3084 3544 2831 
Q 3344 2578 2956 2516 
Q 3422 2416 3680 2098 
Q 3938 1781 3938 1306 
Q 3938 681 3513 340 
Q 3088 0 2303 0 
L 628 0 
L 628 4666 
z
" transform="scale(0.015625)"/>
       <path id="DejaVuSans-66" d="M 2375 4863 
L 2375 4384 
L 1825 4384 
Q 1516 4384 1395 4259 
Q 1275 4134 1275 3809 
L 1275 3500 
L 2222 3500 
L 2222 3053 
L 1275 3053 
L 1275 0 
L 697 0 
L 697 3053 
L 147 3053 
L 147 3500 
L 697 3500 
L 697 3744 
Q 697 4328 969 4595 
Q 1241 4863 1831 4863 
L 2375 4863 
z
" transform="scale(0.015625)"/>
       <path id="DejaVuSans-35" d="M 691 4666 
L 3169 4666 
L 3169 4134 
L 1269 4134 
L 1269 2991 
Q 1406 3038 1543 3061 
Q 1681 3084 1819 3084 
Q 2600 3084 3056 2656 
Q 3513 2228 3513 1497 
Q 3513 744 3044 326 
Q 2575 -91 1722 -91 
Q 1428 -91 1123 -41 
Q 819 9 494 109 
L 494 744 
Q 775 591 1075 516 
Q 1375 441 1709 441 
Q 2250 441 2565 725 
Q 2881 1009 2881 1497 
Q 2881 1984 2565 2268 
Q 2250 2553 1709 2553 
Q 1456 2553 1204 2497 
Q 953 2441 691 2322 
L 691 4666 
z
" transform="scale(0.015625)"/>
      </defs>
      <use xlink:href="#DejaVuSans-42"/>
      <use xlink:href="#DejaVuSans-20" transform="translate(68.603516 0)"/>
      <use xlink:href="#DejaVuSans-28" transform="translate(100.390625 0)"/>
      <use xlink:href="#DejaVuSans-61" transform="translate(139.404297 0)"/>
      <use xlink:href="#DejaVuSans-6d" transform="translate(200.683594 0)"/>
      <use xlink:href="#DejaVuSans-70" transform="translate(298.095703 0)"/>
      <use xlink:href="#DejaVuSans-6c" transform="translate(361.572266 0)"/>
      <use xlink:href="#DejaVuSans-69" transform="translate(389.355469 0)"/>
      <use xlink:href="#DejaVuSans-66" transform="translate(417.138672 0)"/>
      <use xlink:href="#DejaVuSans-69" transform="translate(452.34375 0)"/>
      <use xlink:href="#DejaVuSans-65" transform="translate(480.126953 0)"/>
      <use xlink:href="#DejaVuSans-64" transform="translate(541.650391 0)"/>
      <use xlink:href="#DejaVuSans-20" transform="translate(605.126953 0)"/>
      <use xlink:href="#DejaVuSans-35" transform="translate(636.914062 0)"/>
      <use xlink:href="#DejaVuSans-2e" transform="translate(700.537109 0)"/>
      <use xlink:href="#DejaVuSans-30" transform="translate(732.324219 0)"/>
      <use xlink:href="#DejaVuSans-20" transform="translate(795.947266 0)"/>
      <use xlink:href="#DejaVuSans-64" transform="translate(827.734375 0)"/>
      <use xlink:href="#DejaVuSans-42" transform="translate(891.210938 0)"/>
      <use xlink:href="#DejaVuSans-29" transform="translate(959.814453 0)"/>
     </g>
    </g>
    <g id="line2d_25">
     <path d="M 572.315625 82.610937 
L 582.315625 82.610937 
L 592.315625 82.610937 
" style="fill: none; stroke-dasharray: 5.55,2.4; stroke-dashoffset: 0; stroke: #ff8c00; stroke-opacity: 0.7; stroke-width: 1.5"/>
    </g>
    <g id="text_19">
     <!-- Peak B = 5.03 -->
     <g transform="translate(600.315625 86.110937) scale(0.1 -0.1)">
      <use xlink:href="#DejaVuSans-50"/>
      <use xlink:href="#DejaVuSans-65" transform="translate(56.677734 0)"/>
      <use xlink:href="#DejaVuSans-61" transform="translate(118.201172 0)"/>
      <use xlink:href="#DejaVuSans-6b" transform="translate(179.480469 0)"/>
      <use xlink:href="#DejaVuSans-20" transform="translate(237.390625 0)"/>
      <use xlink:href="#DejaVuSans-42" transform="translate(269.177734 0)"/>
      <use xlink:href="#DejaVuSans-20" transform="translate(337.78125 0)"/>
      <use xlink:href="#DejaVuSans-3d" transform="translate(369.568359 0)"/>
      <use xlink:href="#DejaVuSans-20" transform="translate(453.357422 0)"/>
      <use xlink:href="#DejaVuSans-35" transform="translate(485.144531 0)"/>
      <use xlink:href="#DejaVuSans-2e" transform="translate(548.767578 0)"/>
      <use xlink:href="#DejaVuSans-30" transform="translate(580.554688 0)"/>
      <use xlink:href="#DejaVuSans-33" transform="translate(644.177734 0)"/>
     </g>
    </g>
    <g id="line2d_26">
     <path d="M 572.315625 97.289062 
L 582.315625 97.289062 
L 592.315625 97.289062 
" style="fill: none; stroke-dasharray: 1.5,2.475; stroke-dashoffset: 0; stroke: #ff8c00; stroke-opacity: 0.7; stroke-width: 1.5"/>
    </g>
    <g id="text_20">
     <!-- RMS B = 3.56 -->
     <g transform="translate(600.315625 100.789062) scale(0.1 -0.1)">
      <use xlink:href="#DejaVuSans-52"/>
      <use xlink:href="#DejaVuSans-4d" transform="translate(69.482422 0)"/>
      <use xlink:href="#DejaVuSans-53" transform="translate(155.761719 0)"/>
      <use xlink:href="#DejaVuSans-20" transform="translate(219.238281 0)"/>
      <use xlink:href="#DejaVuSans-42" transform="translate(251.025391 0)"/>
      <use xlink:href="#DejaVuSans-20" transform="translate(319.628906 0)"/>
      <use xlink:href="#DejaVuSans-3d" transform="translate(351.416016 0)"/>
      <use xlink:href="#DejaVuSans-20" transform="translate(435.205078 0)"/>
      <use xlink:href="#DejaVuSans-33" transform="translate(466.992188 0)"/>
      <use xlink:href="#DejaVuSans-2e" transform="translate(530.615234 0)"/>
      <use xlink:href="#DejaVuSans-35" transform="translate(562.402344 0)"/>
      <use xlink:href="#DejaVuSans-36" transform="translate(626.025391 0)"/>
     </g>
    </g>
    <g id="line2d_27">
     <path d="M 572.315625 111.967188 
L 582.315625 111.967188 
L 592.315625 111.967188 
" style="fill: none; stroke-dasharray: 1.5,2.475; stroke-dashoffset: 0; stroke: #ff0000; stroke-opacity: 0.8; stroke-width: 1.5"/>
    </g>
    <g id="text_21">
     <!-- Clip limit = 4.50 -->
     <g transform="translate(600.315625 115.467188) scale(0.1 -0.1)">
      <defs>
       <path id="DejaVuSans-43" d="M 4122 4306 
L 4122 3641 
Q 3803 3938 3442 4084 
Q 3081 4231 2675 4231 
Q 1875 4231 1450 3742 
Q 1025 3253 1025 2328 
Q 1025 1406 1450 917 
Q 1875 428 2675 428 
Q 3081 428 3442 575 
Q 3803 722 4122 1019 
L 4122 359 
Q 3791 134 3420 21 
Q 3050 -91 2638 -91 
Q 1578 -91 968 557 
Q 359 1206 359 2328 
Q 359 3453 968 4101 
Q 1578 4750 2638 4750 
Q 3056 4750 3426 4639 
Q 3797 4528 4122 4306 
z
" transform="scale(0.015625)"/>
      </defs>
      <use xlink:href="#DejaVuSans-43"/>
      <use xlink:href="#DejaVuSans-6c" transform="translate(69.824219 0)"/>
      <use xlink:href="#DejaVuSans-69" transform="translate(97.607422 0)"/>
      <use xlink:href="#DejaVuSans-70" transform="translate(125.390625 0)"/>
      <use xlink:href="#DejaVuSans-20" transform="translate(188.867188 0)"/>
      <use xlink:href="#DejaVuSans-6c" transform="translate(220.654297 0)"/>
      <use xlink:href="#DejaVuSans-69" transform="translate(248.4375 0)"/>
      <use xlink:href="#DejaVuSans-6d" transform="translate(276.220703 0)"/>
      <use xlink:href="#DejaVuSans-69" transform="translate(373.632812 0)"/>
      <use xlink:href="#DejaVuSans-74" transform="translate(401.416016 0)"/>
      <use xlink:href="#DejaVuSans-20" transform="translate(440.625 0)"/>
      <use xlink:href="#DejaVuSans-3d" transform="translate(472.412109 0)"/>
      <use xlink:href="#DejaVuSans-20" transform="translate(556.201172 0)"/>
      <use xlink:href="#DejaVuSans-34" transform="translate(587.988281 0)"/>
      <use xlink:href="#DejaVuSans-2e" transform="translate(651.611328 0)"/>
      <use xlink:href="#DejaVuSans-35" transform="translate(683.398438 0)"/>
      <use xlink:href="#DejaVuSans-30" transform="translate(747.021484 0)"/>
     </g>
    </g>
   </g>
  </g>
 </g>
 <defs>
  <clipPath id="p9bf4bde27c">
   <rect x="46.64" y="10.8" width="662.56" height="379.24"/>
  </clipPath>
 </defs>
</svg>
